<svg width="107" height="107" viewBox="0 0 107 107" fill="none" xmlns="http://www.w3.org/2000/svg">
<path d="M53.5 87.524C73.701 87.524 90.0772 81.0998 90.0772 73.1751C90.0772 65.2504 73.701 58.8262 53.5 58.8262C33.299 58.8262 16.9229 65.2504 16.9229 73.1751C16.9229 81.0998 33.299 87.524 53.5 87.524Z" fill="#F9FAFB"/>
<path d="M38.3953 40.6543L39.931 42.7477H31.8218L30.2861 40.6543H38.3953Z" fill="#475367"/>
<path d="M39.9309 42.8965H31.8217C31.7742 42.8965 31.7296 42.8737 31.7018 42.8361L30.1662 40.7426C30.1335 40.6971 30.1286 40.6376 30.1533 40.5871C30.1781 40.5376 30.2296 40.5059 30.2861 40.5059H38.3953C38.4428 40.5059 38.4874 40.5286 38.5152 40.5663L40.0508 42.6597C40.0835 42.7053 40.0885 42.7647 40.0637 42.8153C40.0379 42.8648 39.9874 42.8965 39.9309 42.8965ZM31.897 42.5993H39.6377L38.32 40.8031H30.5793L31.897 42.5993Z" fill="#F9FAFB"/>
<path d="M38.3953 40.6562C38.1377 44.1615 37.4759 47.422 35.9491 50.1594H28.7712H22.6484C23.5787 48.3593 24.4011 45.2662 25.0946 40.6562H30.2861H38.3953ZM35.9273 43.0974C36.1324 43.0974 36.3246 42.9369 36.3563 42.7378C36.388 42.5396 36.2464 42.3791 36.0413 42.3791H26.6986C26.4935 42.3791 26.3013 42.5396 26.2696 42.7378C26.2379 42.9369 26.3786 43.0974 26.5846 43.0974H35.9273ZM34.9049 47.2566C35.11 47.2566 35.3022 47.0961 35.3339 46.8969C35.3656 46.6988 35.2239 46.5383 35.0188 46.5383H25.6761C25.4711 46.5383 25.2789 46.6988 25.2471 46.8969C25.2154 47.0961 25.3561 47.2566 25.5622 47.2566H34.9049ZM35.5954 45.177C35.8005 45.177 35.9927 45.0165 36.0244 44.8183C36.0561 44.6202 35.9145 44.4597 35.7094 44.4597H26.3667C26.1616 44.4597 25.9694 44.6202 25.9377 44.8183C25.906 45.0165 26.0477 45.177 26.2528 45.177H35.5954Z" fill="#F7F9FC"/>
<path d="M35.949 50.3073H22.6483C22.5968 50.3073 22.5483 50.2805 22.5215 50.2359C22.4948 50.1913 22.4928 50.1369 22.5166 50.0903C23.4597 48.2663 24.2781 45.0841 24.9478 40.6327C24.9587 40.5604 25.0212 40.5059 25.0945 40.5059H38.3952C38.4368 40.5059 38.4764 40.5227 38.5041 40.5534C38.5319 40.5841 38.5467 40.6247 38.5438 40.6654C38.2466 44.7076 37.4639 47.7472 36.0788 50.23C36.0521 50.2785 36.0025 50.3073 35.949 50.3073ZM22.8881 50.01H35.8608C37.1795 47.6124 37.9355 44.6799 38.2347 40.8041H25.2223C24.5763 45.0524 23.7916 48.1465 22.8881 50.01ZM34.9048 47.4044H25.5621C25.4194 47.4044 25.2877 47.3459 25.2005 47.2439C25.1143 47.1428 25.0786 47.0111 25.1004 46.8724C25.144 46.6009 25.3966 46.3879 25.676 46.3879H35.0187C35.1614 46.3879 35.2941 46.4463 35.3803 46.5484C35.4665 46.6494 35.5022 46.7812 35.4804 46.9189C35.4368 47.1914 35.1842 47.4044 34.9048 47.4044ZM25.676 46.6861C25.5433 46.6861 25.4135 46.7931 25.3937 46.9199C25.3857 46.9714 25.3966 47.017 25.4264 47.0517C25.4571 47.0874 25.5056 47.1072 25.5621 47.1072H34.9048C35.0375 47.1072 35.1673 47.0002 35.1871 46.8724C35.1951 46.8208 35.1842 46.7763 35.1544 46.7416C35.1237 46.7059 35.0752 46.6851 35.0187 46.6851H25.676V46.6861ZM35.5953 45.3248H26.2526C26.11 45.3248 25.9772 45.2664 25.891 45.1643C25.8048 45.0633 25.7692 44.9315 25.791 44.7938C25.8346 44.5223 26.0872 44.3093 26.3666 44.3093H35.7093C35.8519 44.3093 35.9847 44.3678 36.0709 44.4698C36.1571 44.5709 36.1927 44.7026 36.17 44.8404C36.1283 45.1118 35.8757 45.3248 35.5953 45.3248ZM26.3676 44.6065C26.2348 44.6065 26.105 44.7135 26.0852 44.8404C26.0773 44.8919 26.0882 44.9365 26.1179 44.9711C26.1486 45.0068 26.1972 45.0276 26.2536 45.0276H35.5963C35.7291 45.0276 35.8589 44.9206 35.8787 44.7938C35.8866 44.7423 35.8757 44.6977 35.846 44.663C35.8153 44.6273 35.7667 44.6065 35.7103 44.6065H26.3676ZM35.9272 43.2453H26.5845C26.4419 43.2453 26.3101 43.1868 26.2229 43.0848C26.1367 42.9837 26.1011 42.8519 26.1229 42.7132C26.1665 42.4418 26.4191 42.2288 26.6985 42.2288H36.0412C36.1838 42.2288 36.3166 42.2872 36.4028 42.3893C36.489 42.4903 36.5246 42.6221 36.5019 42.7598C36.4602 43.0322 36.2066 43.2453 35.9272 43.2453ZM26.6995 42.527C26.5667 42.527 26.4369 42.634 26.4171 42.7608C26.4092 42.8123 26.4201 42.8579 26.4498 42.8926C26.4805 42.9282 26.5291 42.948 26.5855 42.948H35.9282C36.061 42.948 36.1908 42.841 36.2106 42.7132C36.2185 42.6617 36.2076 42.6171 36.1779 42.5825C36.1472 42.5468 36.0986 42.526 36.0422 42.526H26.6995V42.527Z" fill="#F9FAFB"/>
<path d="M35.0183 46.5371C35.2234 46.5371 35.3651 46.6976 35.3334 46.8958C35.3017 47.0949 35.1094 47.2554 34.9044 47.2554H25.5617C25.3566 47.2554 25.2149 47.0949 25.2466 46.8958C25.2783 46.6976 25.4705 46.5371 25.6756 46.5371H35.0183Z" fill="#D0D5DD"/>
<path d="M34.9044 47.4032H25.5617C25.419 47.4032 25.2872 47.3448 25.2001 47.2427C25.1139 47.1417 25.0782 47.0099 25.1 46.8712C25.1436 46.5997 25.3962 46.3867 25.6756 46.3867H35.0183C35.161 46.3867 35.2937 46.4452 35.3799 46.5472C35.4661 46.6483 35.5018 46.78 35.48 46.9178C35.4364 47.1902 35.1838 47.4032 34.9044 47.4032ZM25.6756 46.6849C25.5429 46.6849 25.4131 46.7919 25.3933 46.9187C25.3853 46.9703 25.3962 47.0158 25.426 47.0505C25.4567 47.0862 25.5052 47.106 25.5617 47.106H34.9044C35.0371 47.106 35.1669 46.999 35.1867 46.8712C35.1947 46.8197 35.1838 46.7751 35.154 46.7404C35.1233 46.7047 35.0748 46.6839 35.0183 46.6839H25.6756V46.6849Z" fill="#D0D5DD"/>
<path d="M55.8306 35.373L55.0201 40.4546C52.9693 40.4546 51.0522 42.0576 50.7362 44.0351C50.4211 46.0136 51.827 47.6156 53.8778 47.6156L53.0674 52.6971H44.4291C44.1141 54.6747 42.196 56.2777 40.1442 56.2777C38.0943 56.2777 36.6875 54.6747 37.0025 52.6971H28.3643L28.7695 50.1589H35.9474C37.4741 47.4205 38.1369 44.1609 38.3935 40.6557H30.2843L30.9838 36.2716C31.063 35.7753 31.5445 35.373 32.0577 35.373H55.8306Z" fill="#D0D5DD"/>
<path d="M40.1452 56.4265C39.093 56.4265 38.1706 56.0252 37.5484 55.295C36.9807 54.6302 36.7301 53.7653 36.8341 52.8459H28.3663C28.3227 52.8459 28.281 52.8271 28.2533 52.7934C28.2256 52.7607 28.2127 52.7161 28.2196 52.6735L28.6248 50.1353C28.6367 50.0629 28.6981 50.0104 28.7715 50.0104H35.8622C37.1809 47.6128 37.9368 44.6802 38.236 40.8045H30.2873C30.2437 40.8045 30.2021 40.7856 30.1744 40.752C30.1466 40.7193 30.1337 40.6747 30.1407 40.6321L30.8401 36.248C30.9303 35.6833 31.4782 35.2246 32.0607 35.2246H55.8316C55.8752 35.2246 55.9168 35.2434 55.9445 35.2771C55.9723 35.3098 55.9851 35.3544 55.9782 35.397L55.1678 40.4785C55.1559 40.5508 55.0945 40.6033 55.0211 40.6033C53.0436 40.6033 51.188 42.1539 50.8838 44.059C50.7411 44.9567 50.9621 45.8027 51.507 46.4408C52.0717 47.1026 52.9138 47.4672 53.8778 47.4672C53.9214 47.4672 53.963 47.486 53.9908 47.5197C54.0185 47.5524 54.0314 47.597 54.0245 47.6396L53.214 52.7211C53.2021 52.7934 53.1407 52.8459 53.0674 52.8459H44.554C44.1696 54.8324 42.2198 56.4265 40.1452 56.4265ZM28.5406 52.5487H37.0045C37.0481 52.5487 37.0897 52.5675 37.1175 52.6012C37.1452 52.6339 37.1581 52.6785 37.1512 52.7211C37.0085 53.6177 37.2294 54.4638 37.7753 55.1028C38.34 55.7646 39.1822 56.1302 40.1462 56.1302C42.1237 56.1302 43.9803 54.5797 44.2845 52.6745C44.2964 52.6022 44.3578 52.5497 44.4311 52.5497H52.9426L53.7064 47.7614C52.7256 47.7198 51.8706 47.3235 51.2831 46.634C50.6807 45.9276 50.435 44.9963 50.5925 44.0125C50.9115 42.0102 52.8267 40.3735 54.8963 40.3081L55.6602 35.5218H32.0597C31.6159 35.5218 31.2008 35.8686 31.1324 36.2956L30.4607 40.5072H38.3955C38.4371 40.5072 38.4768 40.5241 38.5045 40.5548C38.5322 40.5855 38.5471 40.6261 38.5441 40.6667C38.2469 44.709 37.4642 47.7486 36.0792 50.2314C36.0524 50.2789 36.0029 50.3076 35.9494 50.3076H28.8983L28.5406 52.5487Z" fill="#F9FAFB"/>
<path d="M38.0105 70.0211H26.5338C26.4278 70.0211 26.3287 70.0042 26.2395 69.9725C26.0899 69.92 25.9661 69.8279 25.8779 69.709L27.4136 71.8024C27.5543 71.9936 27.7871 72.1145 28.0694 72.1145H39.5472L38.0105 70.0211Z" fill="#D0D5DD"/>
<path d="M39.5463 72.2635H28.0686C27.7495 72.2635 27.4672 72.1278 27.2928 71.891L25.7581 69.7985L25.7572 69.7975C25.7086 69.7312 25.7235 69.638 25.7889 69.5895C25.8543 69.5409 25.9484 69.5548 25.9969 69.6212C26.0683 69.7173 26.1683 69.7906 26.2872 69.8322C26.3635 69.859 26.4457 69.8718 26.5329 69.8718H38.0106C38.0582 69.8718 38.1028 69.8946 38.1305 69.9323L39.6662 72.0257C39.6989 72.0713 39.7038 72.1307 39.679 72.1813C39.6533 72.2318 39.6028 72.2635 39.5463 72.2635ZM26.3932 70.1611L27.5326 71.7146C27.6495 71.8741 27.8456 71.9663 28.0686 71.9663H39.253L37.9353 70.1701H26.5339C26.4863 70.1701 26.4388 70.1671 26.3932 70.1611Z" fill="#F9FAFB"/>
<path d="M81.9337 38.2595C81.9347 38.2417 81.9347 38.2248 81.9347 38.208C81.9347 38.1981 81.9337 38.1882 81.9327 38.1783C81.9317 38.1634 81.9308 38.1475 81.9288 38.1327C81.9278 38.1218 81.9258 38.1119 81.9238 38.102C81.9218 38.093 81.9218 38.0831 81.9199 38.0732C81.9189 38.0703 81.9179 38.0673 81.9169 38.0643C81.9099 38.0306 81.901 37.9989 81.8901 37.9672C81.8891 37.9652 81.8891 37.9643 81.8891 37.9623C81.8872 37.9563 81.8842 37.9514 81.8822 37.9454C81.8743 37.9266 81.8664 37.9068 81.8574 37.889C81.8555 37.885 81.8545 37.881 81.8525 37.8771C81.8495 37.8721 81.8465 37.8672 81.8436 37.8612C81.8356 37.8473 81.8277 37.8335 81.8198 37.8206C81.8168 37.8156 81.8138 37.8097 81.8109 37.8047C81.8049 37.7958 81.799 37.7869 81.793 37.779L80.2574 35.6855C80.2673 35.6994 80.2762 35.7133 80.2851 35.7272C80.2931 35.74 80.301 35.7539 80.3089 35.7678C80.3139 35.7767 80.3188 35.7856 80.3238 35.7955C80.3327 35.8143 80.3406 35.8332 80.3485 35.852C80.3515 35.8589 80.3545 35.8659 80.3575 35.8738C80.3684 35.9055 80.3773 35.9372 80.3842 35.9709C80.3872 35.9838 80.3892 35.9956 80.3911 36.0085C80.3931 36.0184 80.3941 36.0293 80.3961 36.0392C80.3981 36.0541 80.3991 36.07 80.4001 36.0848C80.4011 36.0947 80.402 36.1046 80.402 36.1145C80.402 36.1314 80.402 36.1492 80.4011 36.167C80.4011 36.176 80.4011 36.1839 80.4001 36.1928C80.3981 36.2196 80.3951 36.2453 80.3911 36.2731L79.4678 42.061L81.0034 44.1544L81.9268 38.3665C81.9308 38.3397 81.9337 38.313 81.9357 38.2872C81.9337 38.2773 81.9337 38.2684 81.9337 38.2595Z" fill="#D0D5DD"/>
<path d="M81.0014 44.3014C80.9549 44.3014 80.9103 44.2796 80.8816 44.241L79.3459 42.1475C79.3221 42.1158 79.3132 42.0752 79.3192 42.0366L80.2425 36.2487C80.2465 36.2259 80.2485 36.2041 80.2505 36.1823L80.2515 36.1605C80.2515 36.1466 80.2524 36.1327 80.2524 36.1179L80.2515 36.0931C80.2505 36.0812 80.2495 36.0683 80.2485 36.0565L80.2455 36.0376C80.2425 36.0218 80.2415 36.0119 80.2396 36.001C80.2336 35.9732 80.2267 35.9465 80.2178 35.9227C80.2178 35.9217 80.2108 35.9069 80.2108 35.9059C80.2049 35.89 80.198 35.8752 80.191 35.8603L80.1791 35.8385C80.1732 35.8286 80.1672 35.8167 80.1603 35.8068C80.1514 35.7919 80.1454 35.783 80.1395 35.7741C80.091 35.7077 80.1048 35.6146 80.1712 35.566C80.2376 35.5175 80.3307 35.5314 80.3793 35.5977L80.3803 35.5987L81.9149 37.6912C81.9228 37.7021 81.9298 37.712 81.9367 37.7229C81.9407 37.7278 81.9446 37.7348 81.9476 37.7417C81.9575 37.7576 81.9674 37.7734 81.9763 37.7903C81.9803 37.7972 81.9843 37.8031 81.9872 37.8091C81.9892 37.813 81.9942 37.8229 81.9952 37.8279C82.0041 37.8467 82.014 37.8695 82.0229 37.8923C82.0259 37.8973 82.0279 37.9042 82.0308 37.9101C82.0318 37.9141 82.0338 37.9181 82.0348 37.923C82.0467 37.9567 82.0566 37.9924 82.0645 38.03C82.0655 38.034 82.0675 38.0399 82.0675 38.0429C82.0695 38.0538 82.0705 38.0627 82.0724 38.0716L82.0744 38.0845C82.0764 38.0954 82.0774 38.1053 82.0794 38.1162C82.0814 38.135 82.0823 38.1529 82.0833 38.1707C82.0843 38.1856 82.0853 38.1955 82.0853 38.2054C82.0853 38.2252 82.0853 38.243 82.0843 38.2618C82.0843 38.2628 82.0843 38.2678 82.0843 38.2678V38.2747C82.0843 38.2817 82.0843 38.2896 82.0833 38.2965C82.0814 38.3272 82.0774 38.3589 82.0724 38.3897L81.1491 44.1776C81.1392 44.237 81.0956 44.2846 81.0371 44.2984C81.0242 44.2994 81.0133 44.3014 81.0014 44.3014ZM79.6223 42.0207L80.9103 43.7773L81.7772 38.3411C81.7812 38.3183 81.7831 38.2965 81.7851 38.2747V38.2539V38.25C81.7851 38.2371 81.7861 38.2232 81.7861 38.2103L81.7851 38.1955C81.7851 38.1945 81.7841 38.1866 81.7841 38.1856C81.7831 38.1737 81.7831 38.1608 81.7812 38.1489L81.7752 38.1083C81.7752 38.1053 81.7732 38.0974 81.7713 38.0904C81.7663 38.0657 81.7584 38.0399 81.7504 38.0161C81.7504 38.0152 81.7495 38.0132 81.7485 38.0112C81.7475 38.0082 81.7445 38.0043 81.7435 37.9993C81.7376 37.9834 81.7306 37.9686 81.7237 37.9537C81.7227 37.9517 81.7207 37.9468 81.7187 37.9438C81.7158 37.9399 81.7128 37.9339 81.7118 37.9319C81.7059 37.921 81.6999 37.9101 81.693 37.8992C81.692 37.8973 81.686 37.8883 81.6851 37.8854C81.6811 37.8794 81.6761 37.8725 81.6712 37.8655L80.5318 36.3121L79.6223 42.0207Z" fill="#F9FAFB"/>
<path d="M50.3048 70.0215L51.8405 72.1149H39.5464L38.0107 70.0215H50.3048Z" fill="#98A2B3"/>
<path d="M51.8404 72.2637H39.5463C39.4988 72.2637 39.4542 72.2409 39.4265 72.2033L37.8908 70.1098C37.8581 70.0643 37.8532 70.0048 37.8779 69.9543C37.9027 69.9048 37.9542 69.873 38.0107 69.873H50.3038C50.3514 69.873 50.3959 69.8958 50.4237 69.9335L51.9593 72.0269C51.992 72.0725 51.997 72.1319 51.9722 72.1825C51.9474 72.232 51.8959 72.2637 51.8404 72.2637ZM39.6216 71.9665H51.5462L50.2285 70.1703H38.3039L39.6216 71.9665Z" fill="#F9FAFB"/>
<path d="M53.0681 52.6973L52.2577 57.7788C54.3075 57.7788 55.7144 59.3818 55.3993 61.3593C55.0843 63.3378 53.1662 64.9398 51.1154 64.9398L50.3049 70.0214H38.0108H26.5341C26.0209 70.0214 25.6672 69.6201 25.7465 69.1237L28.366 52.6973H37.0042C36.6892 54.6748 38.095 56.2778 40.1459 56.2778C42.1967 56.2778 44.1148 54.6748 44.4308 52.6973H53.0681Z" fill="#F7F9FC"/>
<path d="M50.3051 70.1701H26.5342C26.237 70.1701 25.9755 70.0552 25.7981 69.8472C25.6257 69.645 25.5554 69.3795 25.6 69.1001L28.2195 52.6737C28.2314 52.6013 28.2928 52.5488 28.3661 52.5488H37.0044C37.048 52.5488 37.0896 52.5676 37.1173 52.6013C37.1451 52.634 37.158 52.6786 37.151 52.7212C37.0084 53.6178 37.2293 54.4639 37.7752 55.103C38.3399 55.7648 39.182 56.1304 40.146 56.1304C42.1236 56.1304 43.9802 54.5798 44.2844 52.6746C44.2962 52.6023 44.3577 52.5498 44.431 52.5498H53.0693C53.1129 52.5498 53.1545 52.5686 53.1822 52.6023C53.2099 52.635 53.2228 52.6796 53.2159 52.7222L52.4322 57.6353C53.4121 57.6769 54.2681 58.0742 54.8556 58.7628C55.4579 59.4691 55.7036 60.4004 55.5461 61.3843C55.2271 63.3865 53.312 65.0232 51.2423 65.0886L50.4517 70.0473C50.4398 70.1166 50.3774 70.1701 50.3051 70.1701ZM28.4929 52.8451L25.8932 69.1467C25.8625 69.3389 25.9091 69.5192 26.024 69.654C26.1439 69.7946 26.3252 69.8729 26.5342 69.8729H50.1783L50.9689 64.9162C50.9808 64.8439 51.0422 64.7914 51.1155 64.7914C53.093 64.7914 54.9487 63.2409 55.2528 61.3357C55.3955 60.4391 55.1746 59.593 54.6297 58.954C54.065 58.2921 53.2228 57.9276 52.2588 57.9276C52.2152 57.9276 52.1736 57.9087 52.1459 57.875C52.1181 57.8424 52.1053 57.7978 52.1122 57.7552L52.8949 52.8461H44.5558C44.1704 54.8315 42.2206 56.4266 40.147 56.4266C39.0949 56.4266 38.1725 56.0253 37.5503 55.2952C36.9826 54.6304 36.7319 53.7655 36.836 52.8461H28.4929V52.8451Z" fill="#F9FAFB"/>
<path d="M77.0259 57.3535L78.5615 59.4469H65.9028L64.3682 57.3535H77.0259Z" fill="#98A2B3"/>
<path d="M78.5615 59.5957H65.9028C65.8552 59.5957 65.8106 59.5729 65.7829 59.5353L64.2473 57.4419C64.2146 57.3963 64.2096 57.3368 64.2344 57.2863C64.2591 57.2368 64.3107 57.2051 64.3671 57.2051H77.0248C77.0724 57.2051 77.117 57.2279 77.1447 57.2655L78.6804 59.3589C78.7131 59.4045 78.718 59.464 78.6932 59.5145C78.6685 59.564 78.617 59.5957 78.5615 59.5957ZM65.9781 59.2985H78.2682L76.9505 57.5023H64.6614L65.9781 59.2985Z" fill="#F9FAFB"/>
<path d="M84.3339 42.0605L85.8695 44.154L84.9897 49.6704L83.4541 47.576L84.3339 42.0605Z" fill="#E4E7EC"/>
<path d="M84.9888 49.8184C84.9422 49.8184 84.8976 49.7966 84.8689 49.7579L83.3332 47.6645C83.3094 47.6328 83.3005 47.5922 83.3065 47.5535L84.1862 42.0371C84.1962 41.9776 84.2398 41.9301 84.2982 41.9162C84.3567 41.9024 84.4181 41.9241 84.4528 41.9727L85.9884 44.0661C86.0122 44.0978 86.0211 44.1385 86.0152 44.1771L85.1354 49.6935C85.1255 49.753 85.0819 49.8005 85.0234 49.8144C85.0125 49.8164 85.0006 49.8184 84.9888 49.8184ZM83.6106 47.5377L84.8986 49.2943L85.712 44.191L84.424 42.4344L83.6106 47.5377Z" fill="#F9FAFB"/>
<path d="M79.4651 42.0605H84.3336L83.4538 47.577H78.5853H75.6953L76.5751 42.0605H79.4651ZM82.4482 45.8303C82.6533 45.8303 82.8455 45.6698 82.8772 45.4707C82.9089 45.2725 82.7672 45.112 82.5621 45.112H77.3538C77.1487 45.112 76.9565 45.2725 76.9248 45.4707C76.8931 45.6698 77.0338 45.8303 77.2399 45.8303H82.4482ZM82.7177 44.1411C82.9228 44.1411 83.115 43.9806 83.1467 43.7825C83.1784 43.5833 83.0377 43.4228 82.8316 43.4228H77.6243C77.4192 43.4228 77.227 43.5833 77.1953 43.7825C77.1636 43.9806 77.3053 44.1411 77.5103 44.1411H82.7177Z" fill="#F7F9FC"/>
<path d="M83.4538 47.7238H75.6954C75.6518 47.7238 75.6102 47.705 75.5824 47.6713C75.5547 47.6386 75.5418 47.594 75.5487 47.5514L76.4285 42.035C76.4404 41.9627 76.5018 41.9102 76.5751 41.9102H84.3336C84.3772 41.9102 84.4188 41.929 84.4466 41.9627C84.4743 41.9954 84.4872 42.0399 84.4803 42.0825L83.6005 47.599C83.5886 47.6713 83.5262 47.7238 83.4538 47.7238ZM75.8697 47.4266H83.327L84.1593 42.2074H76.7019L75.8697 47.4266ZM82.4482 45.9781H77.2399C77.0973 45.9781 76.9655 45.9197 76.8783 45.8176C76.7921 45.7166 76.7564 45.5848 76.7782 45.4461C76.8218 45.1746 77.0745 44.9616 77.3539 44.9616H82.5622C82.7048 44.9616 82.8376 45.0201 82.9238 45.1221C83.01 45.2232 83.0457 45.355 83.0239 45.4927C82.9813 45.7651 82.7276 45.9781 82.4482 45.9781ZM77.3548 45.2599C77.2221 45.2599 77.0923 45.3668 77.0725 45.4937C77.0646 45.5452 77.0755 45.5908 77.1052 45.6254C77.1359 45.6611 77.1844 45.6809 77.2409 45.6809H82.4492C82.582 45.6809 82.7118 45.5739 82.7316 45.4461C82.7395 45.3946 82.7286 45.35 82.6989 45.3153C82.6682 45.2797 82.6196 45.2589 82.5632 45.2589H77.3548V45.2599ZM82.7177 44.2889H77.5094C77.3667 44.2889 77.234 44.2305 77.1478 44.1284C77.0616 44.0274 77.0259 43.8956 77.0487 43.7579C77.0923 43.4864 77.3449 43.2734 77.6243 43.2734H82.8327C82.9753 43.2734 83.1071 43.3319 83.1943 43.4339C83.2805 43.535 83.3161 43.6667 83.2943 43.8054C83.2507 44.0759 82.9971 44.2889 82.7177 44.2889ZM77.6243 43.5706C77.4916 43.5706 77.3618 43.6776 77.342 43.8054C77.334 43.857 77.3449 43.9015 77.3747 43.9362C77.4054 43.9719 77.4539 43.9927 77.5104 43.9927H82.7187C82.8515 43.9927 82.9813 43.8857 83.0011 43.7589C83.009 43.7074 82.9981 43.6618 82.9684 43.6271C82.9377 43.5914 82.8891 43.5716 82.8327 43.5716H77.6243V43.5706Z" fill="#F9FAFB"/>
<path d="M79.6017 35.373C80.1159 35.373 80.4686 35.7753 80.3894 36.2716L79.466 42.0596H76.576L75.6962 47.576H78.5862L77.7689 52.6981H69.6596C69.9747 50.7196 68.5688 49.1176 66.518 49.1176C64.4682 49.1176 62.5501 50.7196 62.234 52.6981H53.0687L53.8791 47.6166C51.8283 47.6166 50.4224 46.0136 50.7375 44.0361C51.0525 42.0586 52.9696 40.4555 55.0214 40.4555L55.8319 35.374H79.6017V35.373Z" fill="#D0D5DD"/>
<path d="M77.7694 52.845H69.6592C69.6156 52.845 69.574 52.8261 69.5463 52.7925C69.5185 52.7598 69.5057 52.7152 69.5126 52.6726C69.6553 51.775 69.4343 50.9299 68.8894 50.2908C68.3247 49.629 67.4826 49.2644 66.5176 49.2644C64.5401 49.2644 62.6844 50.8149 62.3803 52.7201C62.3684 52.7925 62.3069 52.845 62.2336 52.845H53.0683C53.0247 52.845 52.9831 52.8261 52.9553 52.7925C52.9276 52.7598 52.9147 52.7152 52.9216 52.6726L53.7053 47.7595C52.7245 47.7179 51.8695 47.3216 51.282 46.632C50.6796 45.9256 50.4339 44.9943 50.5914 44.0105C50.9104 42.0082 52.8256 40.3715 54.8952 40.3061L55.6858 35.3475C55.6977 35.2752 55.7591 35.2227 55.8324 35.2227H79.6023C79.8995 35.2227 80.1601 35.3376 80.3384 35.5456C80.5108 35.7477 80.5821 36.0143 80.5366 36.2936L79.6132 42.0816C79.6013 42.1539 79.5399 42.2064 79.4666 42.2064H76.7034L75.8712 47.4256H78.5868C78.6304 47.4256 78.672 47.4444 78.6997 47.4781C78.7275 47.5108 78.7404 47.5554 78.7334 47.598L77.9161 52.7201C77.9042 52.7925 77.8418 52.845 77.7694 52.845ZM69.8296 52.5477H77.6426L78.4124 47.7228H75.6968C75.6532 47.7228 75.6116 47.704 75.5839 47.6703C75.5561 47.6376 75.5432 47.593 75.5502 47.5504L76.4299 42.034C76.4418 41.9617 76.5033 41.9092 76.5766 41.9092H79.3397L80.2423 36.2461C80.273 36.0539 80.2265 35.8726 80.1115 35.7378C79.9917 35.5972 79.8104 35.5199 79.6023 35.5199H55.9573L55.1667 40.4766C55.1548 40.5489 55.0934 40.6014 55.02 40.6014C53.0425 40.6014 51.1869 42.1519 50.8827 44.0571C50.74 44.9547 50.961 45.8008 51.5059 46.4388C52.0706 47.1007 52.9127 47.4652 53.8767 47.4652C53.9203 47.4652 53.9619 47.4841 53.9897 47.5178C54.0174 47.5504 54.0303 47.595 54.0234 47.6376L53.2407 52.5468H62.1078C62.4932 50.5613 64.443 48.9662 66.5166 48.9662C67.5698 48.9662 68.4921 49.3675 69.1143 50.0976C69.682 50.7634 69.9327 51.6273 69.8296 52.5477Z" fill="#F9FAFB"/>
<path d="M78.5859 47.5742L80.1216 49.6686L79.3042 54.7898L77.7686 52.6964L78.5859 47.5742Z" fill="#D0D5DD"/>
<path d="M79.3042 54.9377C79.2576 54.9377 79.213 54.9159 79.1843 54.8773L77.6487 52.7839C77.6249 52.7522 77.616 52.7115 77.6219 52.6729L78.4393 47.5508C78.4492 47.4913 78.4928 47.4438 78.5512 47.4299C78.6097 47.416 78.6711 47.4378 78.7058 47.4864L80.2414 49.5798C80.2652 49.6115 80.2741 49.6521 80.2682 49.6908L79.4508 54.8129C79.4409 54.8723 79.3973 54.9199 79.3389 54.9338C79.328 54.9367 79.3161 54.9377 79.3042 54.9377ZM77.9261 52.658L79.214 54.4146L79.965 49.7056L78.677 47.949L77.9261 52.658Z" fill="#F9FAFB"/>
<path d="M77.7684 52.6973L79.3041 54.7907L78.562 59.4472L77.0264 57.3537L77.7684 52.6973Z" fill="#D0D5DD"/>
<path d="M78.562 59.5951C78.5154 59.5951 78.4708 59.5733 78.4421 59.5347L76.9065 57.4413C76.8827 57.4096 76.8738 57.3689 76.8797 57.3303L77.6228 52.6738C77.6327 52.6144 77.6763 52.5668 77.7347 52.5529C77.7932 52.5391 77.8546 52.5609 77.8893 52.6094L79.4249 54.7028C79.4487 54.7346 79.4576 54.7752 79.4517 54.8138L78.7086 59.4703C78.6987 59.5297 78.6551 59.5773 78.5967 59.5912C78.5848 59.5941 78.5739 59.5951 78.562 59.5951ZM77.1829 57.3154L78.4708 59.072L79.1475 54.8287L77.8596 53.0721L77.1829 57.3154Z" fill="#F9FAFB"/>
<path d="M62.5968 70.0215L64.1325 72.1149H51.8403L50.3047 70.0215H62.5968Z" fill="#98A2B3"/>
<path d="M64.1324 72.2637H51.8403C51.7927 72.2637 51.7481 72.2409 51.7204 72.2033L50.1848 70.1098C50.1521 70.0643 50.1471 70.0048 50.1719 69.9543C50.1966 69.9048 50.2482 69.873 50.3046 69.873H62.5978C62.6453 69.873 62.6899 69.8958 62.7176 69.9335L64.2533 72.0269C64.286 72.0725 64.2909 72.1319 64.2662 72.1825C64.2404 72.232 64.1889 72.2637 64.1324 72.2637ZM51.9156 71.9665H63.8401L62.5225 70.1703H50.5979L51.9156 71.9665Z" fill="#F9FAFB"/>
<path d="M62.5967 70.0215L64.1323 72.1149L63.3813 76.8249L61.8457 74.7315L62.5967 70.0215Z" fill="#D0D5DD"/>
<path d="M63.3813 76.9738C63.3348 76.9738 63.2902 76.952 63.2614 76.9134L61.7258 74.82C61.702 74.7883 61.6931 74.7476 61.699 74.709L62.45 69.998C62.4599 69.9386 62.5035 69.891 62.562 69.8772C62.6204 69.8633 62.6809 69.8851 62.7165 69.9336L64.2522 72.0271C64.276 72.0588 64.2849 72.0994 64.2789 72.138L63.5279 76.849C63.518 76.9084 63.4745 76.956 63.416 76.9699C63.4041 76.9729 63.3932 76.9738 63.3813 76.9738ZM62.0022 74.6941L63.2902 76.4507L63.9758 72.1529L62.6878 70.3963L62.0022 74.6941Z" fill="#F9FAFB"/>
<path d="M61.846 74.7305L63.3816 76.8239H38.7954L37.2598 74.7305H61.846Z" fill="#D0D5DD"/>
<path d="M63.3816 76.9727H38.7954C38.7478 76.9727 38.7032 76.9499 38.6755 76.9123L37.1398 74.8188C37.1071 74.7732 37.1022 74.7138 37.127 74.6633C37.1517 74.6137 37.2032 74.582 37.2597 74.582H61.8459C61.8935 74.582 61.9381 74.6048 61.9658 74.6425L63.5015 76.7359C63.5342 76.7815 63.5391 76.8409 63.5143 76.8915C63.4886 76.942 63.4371 76.9727 63.3816 76.9727ZM38.8707 76.6755H63.0883L61.7706 74.8793H37.553L38.8707 76.6755Z" fill="#F9FAFB"/>
<path d="M62.597 70.0215L61.846 74.7315H37.2598L38.0107 70.0215H50.3048H62.597Z" fill="#98A2B3"/>
<path d="M61.8461 74.8793H37.2599C37.2163 74.8793 37.1747 74.8605 37.1469 74.8268C37.1182 74.7941 37.1063 74.7495 37.1133 74.7069L37.8642 69.9959C37.8761 69.9236 37.9376 69.8711 38.0109 69.8711H62.5971C62.6407 69.8711 62.6823 69.8899 62.71 69.9236C62.7378 69.9563 62.7507 70.0009 62.7437 70.0435L61.9927 74.7545C61.9818 74.8268 61.9194 74.8793 61.8461 74.8793ZM37.4343 74.5821H61.7193L62.4227 70.1683H38.1377L37.4343 74.5821Z" fill="#F9FAFB"/>
<path d="M78.7038 67.5017C78.7642 67.3551 78.8227 67.2084 78.8782 67.0598C78.8801 67.0549 78.8821 67.0499 78.8831 67.045C78.9376 66.8993 78.9901 66.7517 79.0416 66.6041C79.0515 66.5754 79.0614 66.5466 79.0714 66.5179C79.1209 66.3713 79.1694 66.2236 79.216 66.075C79.2249 66.0463 79.2338 66.0176 79.2428 65.9878C79.2873 65.8412 79.3319 65.6936 79.3735 65.544C79.3755 65.5351 79.3785 65.5272 79.3815 65.5182C79.4241 65.3637 79.4647 65.2081 79.5043 65.0526C79.5122 65.0209 79.5202 64.9892 79.5281 64.9575C79.5657 64.8049 79.6024 64.6503 79.6371 64.4958C79.643 64.469 79.649 64.4433 79.6539 64.4165C79.6866 64.2699 79.7173 64.1213 79.746 63.9737C79.75 63.9548 79.754 63.936 79.7569 63.9172C79.7877 63.7597 79.8164 63.6002 79.8441 63.4407C79.8501 63.407 79.856 63.3733 79.862 63.3386C79.8887 63.1791 79.9145 63.0196 79.9383 62.8591C79.9412 62.8373 79.9442 62.8155 79.9472 62.7937C79.969 62.6421 79.9898 62.4905 80.0096 62.338C80.0126 62.3122 80.0165 62.2874 80.0195 62.2617C80.0393 62.1002 80.0581 61.9377 80.076 61.7742C80.0799 61.7396 80.0829 61.7049 80.0869 61.6712C80.1037 61.5057 80.1196 61.3403 80.1344 61.1738C80.1354 61.16 80.1364 61.1461 80.1374 61.1322C80.1513 60.9727 80.1632 60.8132 80.174 60.6527C80.176 60.622 80.178 60.5913 80.18 60.5606C80.1909 60.3951 80.2008 60.2297 80.2097 60.0632C80.2117 60.0295 80.2127 59.9958 80.2147 59.9622C80.2226 59.7898 80.2305 59.6184 80.2365 59.445L78.7008 57.3516C78.6949 57.5249 78.6869 57.6973 78.679 57.8687C78.677 57.9024 78.676 57.9361 78.6741 57.9698C78.6651 58.1362 78.6562 58.3027 78.6443 58.4671C78.6424 58.4979 78.6404 58.5286 78.6384 58.5593C78.6275 58.7198 78.6156 58.8793 78.6017 59.0388C78.6008 59.0527 78.5998 59.0665 78.5988 59.0804C78.5839 59.2469 78.5681 59.4133 78.5512 59.5787C78.5472 59.6134 78.5443 59.6471 78.5403 59.6818C78.5225 59.8453 78.5046 60.0077 78.4838 60.1692C78.4809 60.195 78.4769 60.2207 78.4739 60.2455C78.4541 60.3981 78.4333 60.5497 78.4115 60.7013C78.4085 60.7231 78.4056 60.7448 78.4026 60.7666C78.3788 60.9271 78.3531 61.0867 78.3263 61.2462C78.3204 61.2798 78.3144 61.3135 78.3085 61.3472C78.2807 61.5067 78.252 61.6662 78.2213 61.8238C78.2173 61.8426 78.2134 61.8604 78.2104 61.8783C78.1807 62.0269 78.15 62.1755 78.1183 62.3221C78.1123 62.3489 78.1074 62.3746 78.1014 62.4014C78.0667 62.5559 78.0311 62.7095 77.9924 62.8631C77.9845 62.8948 77.9766 62.9265 77.9687 62.9592C77.929 63.1147 77.8884 63.2702 77.8458 63.4248C77.8438 63.4337 77.8408 63.4416 77.8379 63.4506C77.7963 63.5992 77.7527 63.7468 77.7071 63.8944C77.6982 63.9231 77.6893 63.9519 77.6804 63.9806C77.6338 64.1292 77.5862 64.2768 77.5357 64.4235C77.5258 64.4522 77.5159 64.4809 77.506 64.5097C77.4545 64.6573 77.402 64.8039 77.3475 64.9505C77.3455 64.9555 77.3435 64.9604 77.3425 64.9654C77.286 65.114 77.2276 65.2606 77.1681 65.4073C77.1563 65.437 77.1444 65.4667 77.1315 65.4955C77.072 65.6381 77.0106 65.7798 76.9472 65.9195C76.9343 65.9482 76.9214 65.976 76.9086 66.0047C76.862 66.1067 76.8144 66.2078 76.7659 66.3079C76.751 66.3386 76.7362 66.3703 76.7203 66.401C76.6599 66.5238 76.5975 66.6457 76.5341 66.7676C76.5232 66.7874 76.5123 66.8082 76.5014 66.828C76.4459 66.932 76.3894 67.0351 76.332 67.1371C76.3131 67.1698 76.2953 67.2025 76.2765 67.2352C76.2081 67.3551 76.1378 67.474 76.0654 67.5928C76.0654 67.5928 76.0654 67.5938 76.0645 67.5938L77.6001 69.6873C77.6724 69.5684 77.7428 69.4495 77.8121 69.3286C77.8309 69.2959 77.8488 69.2642 77.8676 69.2315C77.9251 69.1285 77.9825 69.0255 78.037 68.9224C78.0479 68.9026 78.0588 68.8828 78.0697 68.862C78.1341 68.7411 78.1955 68.6183 78.256 68.4954C78.2708 68.4647 78.2857 68.433 78.3015 68.4023C78.3501 68.3022 78.3977 68.2012 78.4442 68.0991C78.4531 68.0793 78.463 68.0605 78.472 68.0407C78.4759 68.0317 78.4799 68.0228 78.4838 68.0139C78.5473 67.8732 78.6087 67.7315 78.6681 67.5899C78.679 67.5602 78.6909 67.5304 78.7038 67.5017Z" fill="#D0D5DD"/>
<path d="M77.5994 69.8358C77.5519 69.8358 77.5073 69.813 77.4796 69.7754L75.9439 67.6819C75.9082 67.6334 75.9053 67.568 75.937 67.5165C76.0093 67.3986 76.0777 67.2807 76.146 67.1618L76.2015 67.0647C76.259 66.9637 76.3144 66.8616 76.3689 66.7586L76.4016 66.6981C76.465 66.5783 76.5265 66.4574 76.5859 66.3355L76.6305 66.2434C76.679 66.1433 76.7266 66.0433 76.7722 65.9432L76.8108 65.859C76.8712 65.7242 76.9327 65.5826 76.9931 65.4389L77.0278 65.3547C77.0942 65.1922 77.1516 65.0495 77.2021 64.9128L77.2081 64.898C77.2626 64.7543 77.3141 64.6087 77.3646 64.462L77.3944 64.3768C77.4439 64.2312 77.4914 64.0846 77.538 63.9369L77.5638 63.8517C77.6084 63.7061 77.6519 63.5595 77.6936 63.4118L77.7005 63.3861C77.7431 63.2325 77.7837 63.079 77.8224 62.9244L77.8461 62.8293C77.8838 62.6777 77.9194 62.5251 77.9541 62.3716L77.971 62.2933C78.0027 62.1467 78.0334 62 78.0631 61.8514L78.074 61.7969C78.1047 61.6404 78.1334 61.4819 78.1612 61.3234L78.178 61.2223C78.2048 61.0638 78.2305 60.9053 78.2543 60.7458L78.2632 60.6804C78.285 60.5298 78.3058 60.3792 78.3247 60.2276L78.3346 60.1513C78.3544 59.9908 78.3732 59.8283 78.391 59.6668L78.4019 59.5638C78.4188 59.3993 78.4346 59.2339 78.4495 59.0684L78.4525 59.0258C78.4653 58.8683 78.4782 58.7088 78.4891 58.5493L78.4951 58.4581C78.506 58.2937 78.5159 58.1282 78.5238 57.9628L78.5288 57.8637C78.5367 57.6903 78.5446 57.5189 78.5505 57.3465C78.5525 57.2831 78.5951 57.2286 78.6556 57.2098C78.716 57.191 78.7814 57.2128 78.819 57.2643L80.3547 59.3577C80.3745 59.3845 80.3844 59.4172 80.3834 59.4509C80.3775 59.6242 80.3695 59.7976 80.3616 59.97L80.3567 60.0721C80.3478 60.2395 80.3378 60.4059 80.3269 60.5724L80.32 60.6645C80.3091 60.826 80.2962 60.9865 80.2834 61.146L80.2804 61.1886C80.2665 61.3551 80.2497 61.5215 80.2328 61.688L80.2219 61.792C80.2041 61.9555 80.1853 62.1189 80.1655 62.2814L80.1555 62.3577C80.1357 62.5113 80.1149 62.6638 80.0931 62.8164L80.0832 62.8828C80.0594 63.0433 80.0337 63.2038 80.0069 63.3643L79.9891 63.4663C79.9614 63.6268 79.9326 63.7873 79.9009 63.9459L79.889 64.0033C79.8593 64.1519 79.8286 64.3005 79.7959 64.4492L79.7791 64.5294C79.7444 64.685 79.7077 64.8395 79.6701 64.9941L79.6473 65.0852C79.6067 65.2477 79.5651 65.4042 79.5225 65.5598L79.5145 65.5855C79.4729 65.7351 79.4283 65.8847 79.3828 66.0324L79.356 66.1195C79.3095 66.2691 79.2609 66.4178 79.2104 66.5664L79.1807 66.6536C79.1291 66.8022 79.0766 66.9508 79.0211 67.0974L79.0152 67.1123C78.9647 67.247 78.9072 67.3926 78.8389 67.5581L78.7011 67.5016L78.8369 67.5611L78.8012 67.6473C78.7398 67.7949 78.6774 67.9395 78.6149 68.0753L78.5753 68.1605C78.5278 68.2635 78.4802 68.3656 78.4307 68.4666L78.3851 68.5607C78.3237 68.6856 78.2613 68.8084 78.1959 68.9313L78.1632 68.9917C78.1077 69.0967 78.0502 69.2007 77.9918 69.3038L77.9363 69.4019C77.8669 69.5237 77.7956 69.6446 77.7223 69.7635C77.6965 69.8061 77.651 69.8318 77.6014 69.8348C77.6044 69.8358 77.6024 69.8358 77.5994 69.8358ZM76.2431 67.5858L77.5875 69.4187C77.6193 69.3642 77.651 69.3097 77.6827 69.2542L77.7372 69.1581C77.7946 69.0561 77.8511 68.9541 77.9056 68.852L77.9373 68.7926C78.0007 68.6717 78.0621 68.5508 78.1226 68.429L78.1671 68.3368C78.2157 68.2377 78.2622 68.1377 78.3088 68.0366L78.3474 67.9524C78.4079 67.8187 78.4693 67.677 78.5297 67.5313L78.5644 67.4471L78.5664 67.4432C78.6328 67.2807 78.6902 67.137 78.7398 67.0053L78.8844 67.0429L78.7457 66.9904C78.8002 66.8458 78.8517 66.7001 78.9023 66.5535L78.932 66.4683C78.9815 66.3226 79.0291 66.176 79.0756 66.0284L79.1014 65.9422C79.146 65.7956 79.1896 65.6499 79.2312 65.5023L79.2381 65.4766C79.2807 65.323 79.3213 65.1694 79.36 65.0139L79.3838 64.9198C79.4214 64.7672 79.4571 64.6146 79.4917 64.462L79.5086 64.3838C79.5403 64.2371 79.571 64.0905 79.6007 63.9429L79.6116 63.8874C79.6423 63.7309 79.6711 63.5733 79.6988 63.4148L79.7157 63.3138C79.7424 63.1562 79.7682 62.9977 79.791 62.8382L79.7999 62.7728C79.8217 62.6222 79.8425 62.4716 79.8613 62.3201L79.8712 62.2438C79.891 62.0833 79.9098 61.9218 79.9267 61.7593L79.9366 61.6612C79.9544 61.4918 79.9703 61.3273 79.9842 61.1619L79.9871 61.1203C80.001 60.9617 80.0129 60.8022 80.0238 60.6427L80.0297 60.5516C80.0406 60.3871 80.0505 60.2217 80.0585 60.0562L80.0634 59.9551C80.0713 59.8006 80.0783 59.646 80.0832 59.4915L78.8289 57.7815C78.827 57.8132 78.826 57.8449 78.824 57.8756L78.819 57.9776C78.8101 58.1451 78.8002 58.3115 78.7893 58.478L78.7824 58.5701C78.7715 58.7316 78.7586 58.8921 78.7457 59.0516L78.7427 59.0932C78.7279 59.2606 78.712 59.4281 78.6952 59.5935L78.6843 59.6976C78.6665 59.861 78.6476 60.0245 78.6278 60.187L78.6179 60.2643C78.5981 60.4178 78.5773 60.5704 78.5555 60.722L78.5466 60.7874C78.5228 60.9489 78.4971 61.1094 78.4693 61.2699L78.4515 61.3719C78.4237 61.5324 78.395 61.6919 78.3633 61.8514L78.3524 61.9069C78.3227 62.0565 78.292 62.2051 78.2593 62.3537L78.2424 62.433C78.2078 62.5885 78.1711 62.7441 78.1334 62.8977L78.1107 62.9898C78.07 63.1513 78.0294 63.3078 77.9858 63.4634L77.9779 63.4891C77.9363 63.6387 77.8917 63.7883 77.8461 63.936L77.8194 64.0231C77.7728 64.1727 77.7243 64.3223 77.6737 64.47L77.644 64.5571C77.5925 64.7058 77.54 64.8544 77.4845 65.001L77.4805 65.0119C77.427 65.1546 77.3686 65.3002 77.3022 65.4617L77.2656 65.5509C77.2041 65.6975 77.1417 65.8411 77.0803 65.9789L77.0407 66.0641C76.9931 66.1671 76.9456 66.2691 76.896 66.3702L76.8504 66.4643C76.789 66.5882 76.7266 66.712 76.6622 66.8349L76.6295 66.8953C76.574 67.0003 76.5166 67.1043 76.4581 67.2074L76.4016 67.3064C76.3521 67.4025 76.2976 67.4947 76.2431 67.5858Z" fill="#F9FAFB"/>
<path d="M78.7008 57.3535C78.5721 61.1223 77.8766 64.6335 76.0635 67.5948H75.3918H61.7314C63.1977 65.3052 64.2559 61.8426 64.3678 57.3535H77.0255H78.7008ZM76.7976 59.8185C77.0314 59.8185 77.2504 59.6352 77.2871 59.4093C77.3227 59.1834 77.1622 59.0001 76.9284 59.0001H65.7449C65.5101 59.0001 65.2922 59.1834 65.2555 59.4093C65.2198 59.6352 65.3794 59.8185 65.6142 59.8185H76.7976ZM76.4202 62.1844C76.654 62.1844 76.8729 62.0021 76.9096 61.7762C76.9453 61.5503 76.7848 61.367 76.5509 61.367H65.7192C65.4844 61.367 65.2664 61.5493 65.2298 61.7762C65.1941 62.0021 65.3536 62.1844 65.5884 62.1844H76.4202ZM75.2739 64.5512C75.5087 64.5512 75.7266 64.3689 75.7633 64.1421C75.799 63.9162 75.6395 63.7339 75.4047 63.7339H65.1327C64.8978 63.7339 64.6799 63.9162 64.6432 64.1421C64.6076 64.368 64.7671 64.5512 65.0019 64.5512H75.2739Z" fill="#D0D5DD"/>
<path d="M76.0649 67.7436H61.7318C61.6773 67.7436 61.6278 67.7139 61.601 67.6663C61.5753 67.6188 61.5773 67.5603 61.606 67.5147C63.1892 65.0428 64.1175 61.4326 64.2186 57.3497C64.2206 57.2695 64.2869 57.2051 64.3672 57.2051H78.7012C78.7418 57.2051 78.7805 57.2219 78.8082 57.2506C78.836 57.2794 78.8508 57.319 78.8498 57.3586C78.7042 61.6149 77.8343 64.9883 76.1907 67.6723C76.1639 67.7168 76.1164 67.7436 76.0649 67.7436ZM61.9993 67.4464H75.9807C77.549 64.8516 78.3891 61.596 78.5477 57.5023H64.5128C64.3949 61.4554 63.5062 64.9685 61.9993 67.4464ZM75.2743 64.7H65.0032C64.8457 64.7 64.7011 64.6366 64.606 64.5247C64.5118 64.4147 64.4732 64.27 64.497 64.1185C64.5445 63.8193 64.8239 63.5854 65.133 63.5854H75.405C75.5626 63.5854 75.7072 63.6498 75.8023 63.7608C75.8964 63.8708 75.9351 64.0144 75.9103 64.166C75.8628 64.4662 75.5834 64.7 75.2743 64.7ZM65.133 63.8837C64.9715 63.8837 64.815 64.0134 64.7902 64.167C64.7803 64.2314 64.7942 64.2899 64.8319 64.3335C64.8705 64.379 64.9319 64.4048 65.0023 64.4048H75.2743C75.4358 64.4048 75.5923 64.275 75.6171 64.1214C75.627 64.058 75.6131 63.9996 75.5754 63.956C75.5368 63.9104 75.4754 63.8847 75.404 63.8847H65.133V63.8837ZM76.4205 62.3332H65.5888C65.4313 62.3332 65.2866 62.2688 65.1915 62.1578C65.0974 62.0478 65.0587 61.9042 65.0825 61.7526C65.1301 61.4534 65.4095 61.2186 65.7186 61.2186H76.5503C76.7069 61.2186 76.8515 61.283 76.9466 61.3939C77.0407 61.5039 77.0794 61.6486 77.0556 61.7991C77.0081 62.0993 76.7297 62.3332 76.4205 62.3332ZM65.7196 61.5168C65.5581 61.5168 65.4015 61.6466 65.3768 61.8001C65.3669 61.8635 65.3807 61.922 65.4184 61.9656C65.457 62.0112 65.5184 62.0369 65.5898 62.0369H76.4215C76.583 62.0369 76.7396 61.9071 76.7643 61.7536C76.7742 61.6902 76.7604 61.6307 76.7227 61.5881C76.6841 61.5425 76.6227 61.5168 76.5523 61.5168H65.7196ZM76.798 59.9673H65.6145C65.458 59.9673 65.3134 59.9039 65.2182 59.7919C65.1241 59.6819 65.0855 59.5373 65.1093 59.3867C65.1568 59.0875 65.4362 58.8527 65.7453 58.8527H76.9288C77.0853 58.8527 77.23 58.9171 77.3251 59.028C77.4192 59.139 77.4579 59.2827 77.4341 59.4333C77.3855 59.7325 77.1071 59.9673 76.798 59.9673ZM65.7453 59.1489C65.5838 59.1489 65.4273 59.2787 65.4025 59.4323C65.3926 59.4957 65.4075 59.5551 65.4441 59.5977C65.4828 59.6433 65.5442 59.669 65.6145 59.669H76.798C76.9595 59.669 77.116 59.5393 77.1408 59.3857C77.1507 59.3223 77.1359 59.2628 77.0992 59.2202C77.0596 59.1747 76.9991 59.1489 76.9288 59.1489H65.7453Z" fill="#F9FAFB"/>
<path d="M74.0744 70.0215L75.6101 72.1149H64.1323L62.5967 70.0215H74.0744Z" fill="#D0D5DD"/>
<path d="M75.61 72.2637H64.1323C64.0847 72.2637 64.0401 72.2409 64.0124 72.2033L62.4767 70.1098C62.4441 70.0643 62.4391 70.0048 62.4639 69.9543C62.4886 69.9048 62.5402 69.873 62.5966 69.873H74.0744C74.1219 69.873 74.1665 69.8958 74.1942 69.9335L75.7299 72.0269C75.7626 72.0725 75.7675 72.1319 75.7428 72.1825C75.717 72.232 75.6655 72.2637 75.61 72.2637ZM64.2076 71.9665H75.3168L73.9991 70.1703H62.8899L64.2076 71.9665Z" fill="#F9FAFB"/>
<path d="M66.5172 49.1172C68.568 49.1172 69.9739 50.7192 69.6588 52.6977H77.769L77.026 57.3542H64.3683C64.2563 61.8433 63.1982 65.3059 61.7319 67.5955H75.3932L75.1495 69.1242C75.0702 69.6206 74.5897 70.0218 74.0755 70.0218H62.5968H50.3047L51.1151 64.9403C53.165 64.9403 55.083 63.3383 55.3991 61.3598C55.7141 59.3813 54.3083 57.7792 52.2574 57.7792L53.0679 52.6977H62.2332C62.5483 50.7192 64.4673 49.1172 66.5172 49.1172Z" fill="#E4E7EC"/>
<path d="M74.0746 70.1706H50.3047C50.2611 70.1706 50.2195 70.1518 50.1918 70.1181C50.164 70.0854 50.1512 70.0408 50.1581 69.9982L50.9685 64.9167C50.9804 64.8444 51.0418 64.7919 51.1152 64.7919C53.0927 64.7919 54.9483 63.2414 55.2525 61.3362C55.3952 60.4395 55.1742 59.5935 54.6293 58.9544C54.0646 58.2926 53.2225 57.928 52.2585 57.928C52.2149 57.928 52.1733 57.9092 52.1455 57.8755C52.1178 57.8428 52.1049 57.7982 52.1118 57.7556L52.9223 52.6741C52.9342 52.6018 52.9956 52.5493 53.0689 52.5493H62.1104C62.4958 50.5638 64.4456 48.9688 66.5192 48.9688C67.5723 48.9688 68.4947 49.37 69.1169 50.1002C69.6846 50.765 69.9353 51.6299 69.8312 52.5503H77.771C77.8146 52.5503 77.8562 52.5691 77.884 52.6028C77.9117 52.6355 77.9246 52.6801 77.9177 52.7227L77.1746 57.3791C77.1627 57.4515 77.1013 57.504 77.028 57.504H64.5149C64.397 61.457 63.5083 64.9702 62.0014 67.448H75.3942C75.4378 67.448 75.4794 67.4669 75.5072 67.5006C75.5349 67.5332 75.5478 67.5778 75.5409 67.6204L75.2972 69.1491C75.205 69.7109 74.6581 70.1706 74.0746 70.1706ZM50.4781 69.8734H74.0746C74.5184 69.8734 74.9336 69.5266 75.0019 69.1006L75.2179 67.7433H61.7319C61.6774 67.7433 61.6279 67.7136 61.6012 67.666C61.5754 67.6185 61.5774 67.56 61.6061 67.5144C63.1893 65.0425 64.1176 61.4323 64.2187 57.3494C64.2207 57.2692 64.2871 57.2048 64.3673 57.2048H76.8982L77.5937 52.8455H69.6579C69.6143 52.8455 69.5727 52.8267 69.5449 52.793C69.5172 52.7603 69.5043 52.7157 69.5112 52.6731C69.6539 51.7755 69.433 50.9304 68.8881 50.2914C68.3233 49.6296 67.4812 49.265 66.5162 49.265C64.5387 49.265 62.683 50.8155 62.3789 52.7207C62.367 52.793 62.3056 52.8455 62.2323 52.8455H53.1937L52.4299 57.6338C53.4097 57.6754 54.2657 58.0727 54.8532 58.7612C55.4556 59.4676 55.7013 60.3989 55.5438 61.3827C55.2247 63.385 53.3096 65.0217 51.24 65.0871L50.4781 69.8734Z" fill="#F9FAFB"/>
<path d="M76.659 71.3298C76.6699 71.2931 76.6788 71.2555 76.6848 71.2179L76.9285 69.6891L75.3928 67.5957L75.1491 69.1244C75.1432 69.1621 75.1343 69.1997 75.1234 69.2364C75.1204 69.2473 75.1164 69.2572 75.1135 69.2681C75.1045 69.2958 75.0937 69.3236 75.0828 69.3503C75.0788 69.3592 75.0748 69.3691 75.0709 69.378C75.055 69.4127 75.0372 69.4464 75.0174 69.4791C75.0114 69.488 75.0055 69.4969 74.9995 69.5058C74.9876 69.5247 74.9748 69.5435 74.9619 69.5613C74.953 69.5732 74.9431 69.5851 74.9341 69.597C74.9242 69.6099 74.9133 69.6228 74.9024 69.6356C74.8915 69.6475 74.8796 69.6594 74.8687 69.6713C74.8588 69.6822 74.8489 69.6921 74.839 69.702C74.8271 69.7139 74.8133 69.7258 74.8004 69.7367C74.7905 69.7456 74.7796 69.7555 74.7697 69.7634C74.7568 69.7743 74.7429 69.7843 74.7291 69.7942C74.7172 69.8031 74.7063 69.812 74.6944 69.8199C74.6825 69.8288 74.6696 69.8368 74.6567 69.8447C74.6419 69.8536 74.628 69.8635 74.6131 69.8714C74.6022 69.8774 74.5913 69.8833 74.5804 69.8893C74.5616 69.8992 74.5418 69.9091 74.523 69.919C74.5131 69.9239 74.5022 69.9279 74.4923 69.9329C74.4645 69.9447 74.4368 69.9556 74.4081 69.9646C74.3962 69.9685 74.3843 69.9725 74.3724 69.9765C74.3625 69.9794 74.3516 69.9824 74.3417 69.9854C74.3229 69.9903 74.304 69.9943 74.2862 69.9983C74.2753 70.0002 74.2654 70.0022 74.2545 70.0042C74.2347 70.0082 74.2149 70.0101 74.1941 70.0131C74.1851 70.0141 74.1752 70.0161 74.1663 70.0161C74.1366 70.0191 74.1069 70.02 74.0771 70.02L75.6128 72.1135C75.6425 72.1135 75.6722 72.1115 75.702 72.1095C75.7109 72.1085 75.7208 72.1075 75.7297 72.1065C75.7495 72.1046 75.7703 72.1016 75.7901 72.0976C75.801 72.0956 75.8109 72.0937 75.8218 72.0917C75.8407 72.0877 75.8595 72.0838 75.8773 72.0788C75.8872 72.0758 75.8981 72.0729 75.908 72.0699C75.914 72.0679 75.9189 72.0669 75.9249 72.0649C75.9318 72.063 75.9378 72.06 75.9447 72.058C75.9734 72.0481 76.0012 72.0382 76.0289 72.0263C76.0349 72.0233 76.0418 72.0213 76.0477 72.0194C76.0517 72.0174 76.0557 72.0154 76.0596 72.0134C76.0794 72.0045 76.0983 71.9946 76.1171 71.9837C76.126 71.9787 76.1349 71.9758 76.1428 71.9708C76.1458 71.9698 76.1478 71.9678 76.1498 71.9659C76.1646 71.9569 76.1785 71.948 76.1934 71.9391C76.2043 71.9322 76.2152 71.9262 76.2251 71.9193C76.2271 71.9183 76.229 71.9163 76.231 71.9143C76.2429 71.9064 76.2538 71.8975 76.2657 71.8886C76.2766 71.8807 76.2885 71.8727 76.2994 71.8638C76.3014 71.8618 76.3043 71.8598 76.3063 71.8579C76.3172 71.8489 76.3271 71.84 76.337 71.8311C76.3469 71.8222 76.3578 71.8133 76.3677 71.8044C76.3707 71.8014 76.3727 71.7994 76.3757 71.7964C76.3856 71.7865 76.3955 71.7756 76.4054 71.7657C76.4143 71.7568 76.4232 71.7479 76.4311 71.739C76.4341 71.736 76.4361 71.733 76.4391 71.7301C76.45 71.7172 76.4599 71.7043 76.4708 71.6914C76.4777 71.6825 76.4856 71.6736 76.4926 71.6647C76.4946 71.6617 76.4965 71.6587 76.4985 71.6558C76.5114 71.6379 76.5243 71.6191 76.5362 71.6003C76.5411 71.5924 76.5471 71.5854 76.552 71.5775C76.553 71.5765 76.553 71.5745 76.554 71.5735C76.5738 71.5408 76.5916 71.5071 76.6075 71.4715C76.6085 71.4685 76.6105 71.4655 76.6125 71.4626C76.6154 71.4566 76.6164 71.4497 76.6194 71.4437C76.6313 71.417 76.6412 71.3893 76.6501 71.3615C76.6521 71.3506 76.656 71.3407 76.659 71.3298Z" fill="#D0D5DD"/>
<path d="M75.6108 72.2644C75.5632 72.2644 75.5187 72.2416 75.4909 72.2039L73.9553 70.1105C73.9226 70.0649 73.9176 70.0055 73.9424 69.955C73.9672 69.9054 74.0187 69.8737 74.0751 69.8737C74.1009 69.8737 74.1257 69.8727 74.1514 69.8697L74.1633 69.8688L74.1742 69.8678C74.192 69.8658 74.2089 69.8638 74.2257 69.8608L74.2535 69.8559C74.2693 69.8529 74.2852 69.8489 74.302 69.844L74.3595 69.8262C74.3843 69.8182 74.408 69.8083 74.4318 69.7984L74.4417 69.7945L74.4586 69.7875C74.4754 69.7796 74.4922 69.7707 74.5091 69.7618L74.5378 69.7469C74.5477 69.7409 74.5576 69.735 74.5665 69.7291C74.5665 69.7291 74.5745 69.7241 74.5755 69.7231L74.5874 69.7162C74.5943 69.7112 74.6022 69.7073 74.6092 69.7023C74.6151 69.6984 74.621 69.6934 74.627 69.6884L74.6389 69.6795C74.6557 69.6666 74.6646 69.6597 74.6736 69.6528L74.7003 69.629C74.7152 69.6161 74.7251 69.6072 74.734 69.5983C74.7409 69.5913 74.7469 69.5854 74.7528 69.5785L74.7597 69.5715C74.7706 69.5606 74.7805 69.5507 74.7895 69.5398C74.7974 69.5309 74.8043 69.521 74.8123 69.5121L74.8231 69.4992C74.8291 69.4923 74.835 69.4843 74.841 69.4764C74.8529 69.4606 74.8628 69.4447 74.8737 69.4279L74.8895 69.4051C74.9064 69.3774 74.9222 69.3476 74.9351 69.3179L74.941 69.305L74.945 69.2951C74.9549 69.2713 74.9638 69.2476 74.9718 69.2238L74.9797 69.197C74.9896 69.1614 74.9975 69.1316 75.0015 69.1029L75.2452 67.5742C75.2551 67.5148 75.2987 67.4672 75.3572 67.4533C75.4156 67.4395 75.476 67.4613 75.5117 67.5098L77.0474 69.6032C77.0711 69.6349 77.0801 69.6756 77.0741 69.7142L76.8304 71.2429C76.8235 71.2835 76.8145 71.3251 76.8007 71.3727C76.7967 71.3846 76.7937 71.3955 76.7898 71.4074C76.7789 71.4411 76.767 71.4718 76.7541 71.5035C76.7521 71.5104 76.7492 71.5183 76.7452 71.5263C76.7432 71.5302 76.7392 71.5382 76.7373 71.5411C76.7214 71.5748 76.7026 71.6125 76.6808 71.6471C76.6778 71.6521 76.6758 71.657 76.6729 71.661C76.6719 71.663 76.6669 71.6699 76.662 71.6769C76.6441 71.7036 76.6303 71.7244 76.6154 71.7452C76.6144 71.7472 76.6114 71.7512 76.6075 71.7561C76.6025 71.7631 76.5956 71.771 76.5896 71.7779L76.5827 71.7858C76.5678 71.8047 76.5579 71.8175 76.547 71.8294C76.546 71.8314 76.5431 71.8354 76.5391 71.8393C76.5322 71.8473 76.5252 71.8542 76.5173 71.8621L76.5094 71.87C76.4955 71.8849 76.4856 71.8948 76.4757 71.9047L76.4668 71.9136C76.4589 71.9216 76.4499 71.9285 76.442 71.9354L76.4331 71.9434C76.4163 71.9582 76.4073 71.9662 76.3974 71.9741L76.3895 71.981C76.3816 71.987 76.3727 71.9939 76.3628 72.0008L76.3429 72.0157C76.333 72.0236 76.3231 72.0305 76.3132 72.0375C76.2974 72.0484 76.2885 72.0543 76.2795 72.0593L76.2607 72.0712C76.2478 72.0801 76.234 72.088 76.2211 72.0959C76.2211 72.0959 76.2132 72.1009 76.2122 72.1009C76.2052 72.1049 76.1973 72.1088 76.1894 72.1128C76.1616 72.1276 76.1398 72.1385 76.118 72.1494C76.1141 72.1514 76.1091 72.1544 76.1032 72.1564C76.0972 72.1593 76.0893 72.1623 76.0824 72.1643C76.0507 72.1782 76.019 72.1901 75.9873 72.201C75.9803 72.2039 75.9724 72.2069 75.9655 72.2089C75.9625 72.2099 75.9516 72.2128 75.9486 72.2138C75.9367 72.2178 75.9268 72.2198 75.9159 72.2228C75.8902 72.2297 75.8694 72.2346 75.8476 72.2396C75.8357 72.2426 75.8228 72.2446 75.8109 72.2465C75.7881 72.2505 75.7653 72.2535 75.7426 72.2564L75.7109 72.2604C75.6792 72.2624 75.6445 72.2644 75.6108 72.2644ZM74.3446 70.1382L75.6831 71.9632C75.6841 71.9632 75.6851 71.9632 75.6861 71.9632L75.699 71.9612C75.7 71.9612 75.7099 71.9602 75.7109 71.9602C75.7277 71.9582 75.7455 71.9562 75.7624 71.9533L75.7901 71.9483C75.806 71.9453 75.8228 71.9414 75.8387 71.9364L75.8654 71.9295C75.8674 71.9285 75.8773 71.9265 75.8783 71.9255C75.8842 71.9235 75.8902 71.9206 75.8971 71.9186C75.9209 71.9107 75.9457 71.9008 75.9694 71.8909C75.9724 71.8899 75.9843 71.8849 75.9873 71.8839C75.9902 71.8829 75.9942 71.88 75.9972 71.879C76.013 71.871 76.0299 71.8621 76.0467 71.8532L76.0754 71.8374C76.0844 71.8324 76.0943 71.8265 76.1032 71.8195L76.1408 71.7957C76.1527 71.7878 76.1587 71.7829 76.1646 71.7779L76.2042 71.7482C76.2171 71.7373 76.2231 71.7323 76.229 71.7264L76.2716 71.6878C76.2776 71.6818 76.2845 71.6739 76.2914 71.6669L76.3251 71.6313C76.334 71.6214 76.341 71.6125 76.3479 71.6035L76.3727 71.5738C76.3727 71.5738 76.3756 71.5689 76.3786 71.5649C76.3885 71.551 76.3994 71.5352 76.4093 71.5183L76.4192 71.5035C76.4192 71.5025 76.4212 71.5015 76.4222 71.4995C76.4232 71.4985 76.4232 71.4975 76.4242 71.4965C76.442 71.4668 76.4569 71.4381 76.4708 71.4084C76.4717 71.4064 76.4737 71.4034 76.4747 71.4004C76.4767 71.3955 76.4797 71.3876 76.4807 71.3856C76.4906 71.3628 76.4995 71.339 76.5074 71.3152L76.5163 71.2885C76.5272 71.2528 76.5342 71.2221 76.5381 71.1944L76.7719 69.7271L75.484 67.9705L75.2967 69.1475C75.2908 69.1871 75.2809 69.2297 75.267 69.2773L75.2571 69.307C75.2442 69.3456 75.2323 69.3773 75.2194 69.4081C75.2135 69.4229 75.2095 69.4318 75.2056 69.4398C75.1877 69.4794 75.1669 69.518 75.1442 69.5547C75.1392 69.5626 75.1342 69.5705 75.1293 69.5785C75.1105 69.6072 75.0966 69.629 75.0807 69.6488C75.0728 69.6597 75.0639 69.6706 75.056 69.6805L75.05 69.6884C75.0362 69.7063 75.0253 69.7192 75.0144 69.732C75.0015 69.7469 74.9886 69.7598 74.9757 69.7736C74.9609 69.7895 74.9519 69.7994 74.942 69.8083C74.9301 69.8202 74.9173 69.8311 74.9044 69.842L74.8905 69.8539C74.8816 69.8618 74.8727 69.8697 74.8638 69.8767C74.8509 69.8876 74.838 69.8965 74.8251 69.9064L74.8083 69.9193C74.7984 69.9262 74.7895 69.9341 74.7796 69.9411C74.7687 69.949 74.7578 69.9559 74.7469 69.9629L74.737 69.9688C74.7161 69.9827 74.7023 69.9916 74.6884 69.9995C74.6795 70.0045 74.6706 70.0094 74.6617 70.0144L74.6518 70.0193C74.63 70.0312 74.6082 70.0421 74.5864 70.052C74.5774 70.056 74.5685 70.06 74.5586 70.0639C74.52 70.0808 74.4883 70.0927 74.4556 70.1036L74.4467 70.1065C74.4368 70.1105 74.4259 70.1135 74.416 70.1164C74.4051 70.1194 74.3932 70.1224 74.3823 70.1254C74.3674 70.1323 74.3565 70.1353 74.3446 70.1382Z" fill="#F9FAFB"/>
<path d="M35.9491 50.1582H28.7702H22.6484L24.1841 52.2516H30.3059H37.4848L35.9491 50.1582Z" fill="#D0D5DD"/>
<path d="M37.4847 52.4004H24.184C24.1365 52.4004 24.0919 52.3776 24.0642 52.34L22.5285 50.2466C22.4958 50.201 22.4909 50.1415 22.5156 50.091C22.5404 50.0415 22.5919 50.0098 22.6484 50.0098H35.9491C35.9966 50.0098 36.0412 50.0326 36.069 50.0702L37.6046 52.1636C37.6373 52.2092 37.6423 52.2687 37.6175 52.3192C37.5917 52.3687 37.5402 52.4004 37.4847 52.4004ZM24.2593 52.1032H37.1915L35.8738 50.307H22.9416L24.2593 52.1032Z" fill="#F9FAFB"/>
<path d="M37.9991 51.2403C38.009 51.2195 38.0189 51.1987 38.0288 51.1779C38.0367 51.1611 38.0446 51.1442 38.0525 51.1274C38.1209 50.9778 38.1863 50.8262 38.2497 50.6736C38.2517 50.6687 38.2547 50.6637 38.2566 50.6578C38.328 50.4864 38.3963 50.312 38.4627 50.1376C38.4845 50.0812 38.5043 50.0237 38.5251 49.9672C38.5687 49.8474 38.6123 49.7275 38.6539 49.6066C38.6777 49.5382 38.6995 49.4699 38.7223 49.4015C38.7589 49.2896 38.7956 49.1776 38.8303 49.0647C38.8531 48.9923 38.8749 48.92 38.8967 48.8477C38.9303 48.7357 38.963 48.6228 38.9947 48.5099C39.0146 48.4375 39.0354 48.3652 39.0552 48.2929C39.0869 48.174 39.1176 48.0551 39.1473 47.9352C39.1642 47.8679 39.182 47.8005 39.1978 47.7331C39.2315 47.5924 39.2642 47.4498 39.2959 47.3071C39.3068 47.2605 39.3177 47.214 39.3276 47.1664C39.3683 46.9762 39.4069 46.785 39.4445 46.5928C39.4535 46.5462 39.4614 46.4977 39.4703 46.4511C39.4971 46.3045 39.5238 46.1578 39.5486 46.0102C39.5605 45.9389 39.5714 45.8675 39.5832 45.7962C39.6031 45.6714 39.6229 45.5456 39.6417 45.4197C39.6536 45.3415 39.6645 45.2632 39.6754 45.1849C39.6922 45.0631 39.7091 44.9412 39.7249 44.8184C39.7348 44.7391 39.7457 44.6588 39.7546 44.5796C39.7695 44.4548 39.7844 44.3289 39.7982 44.2031C39.8072 44.1268 39.8151 44.0495 39.823 43.9733C39.8369 43.8355 39.8507 43.6978 39.8636 43.5591C39.8696 43.4937 39.8765 43.4283 39.8824 43.363C39.9003 43.1589 39.9171 42.9548 39.932 42.7497L38.3963 40.6562C38.3815 40.8613 38.3646 41.0664 38.3468 41.2695C38.3409 41.3349 38.3349 41.4003 38.328 41.4657C38.3151 41.6044 38.3022 41.7421 38.2874 41.8798C38.2794 41.9571 38.2705 42.0334 38.2626 42.1097C38.2487 42.2355 38.2339 42.3613 38.219 42.4861C38.2091 42.5664 38.1992 42.6457 38.1893 42.7249C38.1734 42.8478 38.1566 42.9696 38.1397 43.0915C38.1288 43.1698 38.1179 43.248 38.106 43.3263C38.0872 43.4521 38.0674 43.5779 38.0476 43.7028C38.0357 43.7741 38.0248 43.8464 38.0129 43.9168C37.9882 44.0644 37.9614 44.211 37.9347 44.3577C37.9257 44.4052 37.9178 44.4528 37.9089 44.4993C37.8722 44.6915 37.8336 44.8828 37.792 45.073C37.7821 45.1205 37.7702 45.1671 37.7603 45.2137C37.7286 45.3563 37.6969 45.498 37.6622 45.6397C37.6454 45.708 37.6285 45.7744 37.6117 45.8428C37.5819 45.9627 37.5512 46.0815 37.5195 46.2004C37.4997 46.2738 37.4799 46.3461 37.4591 46.4184C37.4274 46.5313 37.3947 46.6443 37.362 46.7562C37.3402 46.8286 37.3184 46.9019 37.2956 46.9732C37.2609 47.0862 37.2243 47.1981 37.1876 47.3101C37.1648 47.3784 37.1421 47.4478 37.1193 47.5151C37.0777 47.636 37.0341 47.7559 36.9905 47.8758C36.9697 47.9323 36.9499 47.9897 36.9281 48.0462C36.8617 48.2215 36.7933 48.3949 36.722 48.5663C36.72 48.5723 36.717 48.5772 36.715 48.5832C36.6447 48.7526 36.5704 48.92 36.4941 49.0865C36.4842 49.1073 36.4743 49.1281 36.4644 49.1499C36.3891 49.3114 36.3128 49.4719 36.2326 49.6294C36.2256 49.6433 36.2187 49.6561 36.2118 49.669C36.1275 49.8345 36.0404 49.9989 35.9502 50.1604L37.4858 52.2539C37.576 52.0914 37.6632 51.9279 37.7474 51.7615C37.7543 51.7486 37.7613 51.7347 37.7682 51.7218C37.8465 51.5623 37.9238 51.4018 37.9991 51.2403Z" fill="#E4E7EC"/>
<path d="M37.4849 52.4003C37.4374 52.4003 37.3928 52.3776 37.365 52.3399L35.8294 50.2465C35.7947 50.1999 35.7917 50.1365 35.8195 50.086C35.9047 49.9334 35.9889 49.7749 36.0781 49.5995L36.0989 49.5599C36.1752 49.4093 36.2495 49.2547 36.3287 49.0843L36.3575 49.0219C36.4328 48.8575 36.5071 48.689 36.5764 48.5226C36.5764 48.5216 36.5814 48.5117 36.5814 48.5107C36.6487 48.3482 36.7161 48.1798 36.7884 47.9906C36.8013 47.9569 36.8132 47.9232 36.8261 47.8895L36.8508 47.8221C36.8944 47.7032 36.938 47.5844 36.9786 47.4645C36.9965 47.413 37.0143 47.3604 37.0312 47.3079L37.047 47.2604C37.0837 47.1494 37.1193 47.0385 37.154 46.9265C37.1758 46.8552 37.1986 46.7828 37.2194 46.7105C37.2531 46.5996 37.2848 46.4876 37.3165 46.3756L37.3224 46.3548C37.3403 46.2904 37.3591 46.2251 37.3759 46.1597C37.4076 46.0418 37.4374 45.9239 37.4681 45.805L37.4839 45.7406C37.4958 45.695 37.5067 45.6494 37.5186 45.6029C37.5523 45.4622 37.584 45.3215 37.6157 45.1798L37.6306 45.1154C37.6365 45.0907 37.6424 45.0649 37.6474 45.0401C37.687 44.8549 37.7267 44.6637 37.7633 44.4695C37.7683 44.4437 37.7722 44.4189 37.7772 44.3932L37.7891 44.3288C37.8158 44.1831 37.8426 44.0375 37.8673 43.8909C37.8763 43.8403 37.8842 43.7898 37.8921 43.7403L37.902 43.6779C37.9218 43.553 37.9416 43.4282 37.9605 43.3034C37.9724 43.2261 37.9833 43.1478 37.9942 43.0695C38.011 42.9487 38.0278 42.8268 38.0437 42.705C38.0536 42.6257 38.0635 42.5464 38.0734 42.4672C38.0883 42.3423 38.1031 42.2175 38.117 42.0927L38.121 42.059C38.1279 41.9936 38.1358 41.9292 38.1418 41.8638C38.1557 41.7271 38.1695 41.5894 38.1824 41.4517L38.2012 41.2565C38.2191 41.0534 38.2359 40.8503 38.2508 40.6452C38.2557 40.5828 38.2983 40.5303 38.3578 40.5134C38.4172 40.4966 38.4816 40.5184 38.5183 40.5679L40.0539 42.6614C40.0747 42.6901 40.0846 42.7248 40.0826 42.7604C40.0678 42.9665 40.0509 43.1716 40.0331 43.3757L40.0143 43.5728C40.0014 43.7115 39.9885 43.8503 39.9737 43.988C39.9667 44.0534 39.9598 44.1187 39.9519 44.1841L39.9479 44.2188C39.934 44.3456 39.9192 44.4714 39.9043 44.5973C39.8944 44.6775 39.8845 44.7578 39.8746 44.837C39.8587 44.9599 39.8419 45.0827 39.825 45.2046C39.8141 45.2829 39.8033 45.3621 39.7914 45.4404C39.7725 45.5672 39.7527 45.693 39.7319 45.8189L39.72 45.8942C39.7121 45.9407 39.7052 45.9873 39.6972 46.0338C39.6725 46.1825 39.6457 46.3301 39.618 46.4767L39.6071 46.5391C39.6021 46.5659 39.5972 46.5926 39.5922 46.6194C39.5556 46.8096 39.5159 47.0038 39.4753 47.196C39.4694 47.2237 39.4624 47.2515 39.4565 47.2792L39.4436 47.3377C39.4119 47.4813 39.3792 47.624 39.3455 47.7657C39.3346 47.8132 39.3227 47.8598 39.3109 47.9063L39.295 47.9698C39.2653 48.0906 39.2346 48.2105 39.2019 48.3294C39.184 48.3958 39.1652 48.4622 39.1474 48.5285L39.1414 48.5483C39.1097 48.6623 39.077 48.7762 39.0434 48.8892C39.0216 48.9625 38.9998 49.0358 38.977 49.1081C38.9413 49.222 38.9046 49.335 38.868 49.4469L38.8561 49.4826C38.8373 49.5401 38.8185 49.5965 38.7986 49.654C38.757 49.7759 38.7124 49.8967 38.6689 50.0176L38.6461 50.081C38.6332 50.1177 38.6203 50.1533 38.6064 50.189C38.5341 50.3792 38.4667 50.5506 38.3984 50.7141C38.3984 50.7151 38.3944 50.724 38.3934 50.725C38.3251 50.8895 38.2577 51.043 38.1923 51.1887L38.1388 51.3026C38.0586 51.476 37.9823 51.6345 37.905 51.7871L37.8842 51.8277C37.793 52.007 37.7068 52.1695 37.6197 52.325C37.5949 52.3696 37.5493 52.3974 37.4988 52.4013C37.4909 52.4003 37.4879 52.4003 37.4849 52.4003ZM36.1246 50.1474L37.4661 51.9763C37.5146 51.8861 37.5632 51.792 37.6137 51.693L37.6335 51.6543C37.7098 51.5047 37.7841 51.3492 37.8634 51.1788L37.9159 51.0668C37.9803 50.9241 38.0467 50.7735 38.1121 50.617C38.1121 50.616 38.116 50.6071 38.117 50.6061C38.1854 50.4417 38.2527 50.2722 38.3231 50.086C38.336 50.0513 38.3488 50.0166 38.3607 49.9819L38.3845 49.9166C38.4281 49.7977 38.4717 49.6788 38.5123 49.5589C38.5311 49.5034 38.55 49.4469 38.5688 49.3915L38.5807 49.3548C38.6173 49.2438 38.654 49.1329 38.6887 49.0209C38.7115 48.9496 38.7333 48.8773 38.7541 48.8049C38.7877 48.694 38.8194 48.582 38.8512 48.4691L38.8571 48.4493C38.8749 48.3839 38.8938 48.3185 38.9116 48.2531C38.9433 48.1352 38.973 48.0163 39.0027 47.8974L39.0186 47.834C39.0305 47.7884 39.0414 47.7429 39.0533 47.6963C39.0869 47.5566 39.1186 47.4149 39.1504 47.2733L39.1642 47.2128C39.1702 47.1861 39.1761 47.1603 39.1821 47.1336C39.2227 46.9433 39.2623 46.7511 39.298 46.5639L39.3237 46.4222C39.3505 46.2766 39.3772 46.1309 39.402 45.9843C39.4099 45.9387 39.4169 45.8932 39.4248 45.8466L39.4367 45.7703C39.4565 45.6455 39.4763 45.5206 39.4951 45.3958C39.507 45.3185 39.5179 45.2403 39.5288 45.162C39.5457 45.0411 39.5625 44.9193 39.5784 44.7974C39.5883 44.7181 39.5982 44.6389 39.6081 44.5596C39.6229 44.4348 39.6378 44.31 39.6517 44.1851L39.6556 44.1504C39.6626 44.086 39.6705 44.0207 39.6764 43.9563C39.6903 43.8195 39.7042 43.6818 39.7171 43.5441L39.7359 43.3489C39.7517 43.1637 39.7676 42.9784 39.7815 42.7921L38.5153 41.0653C38.5093 41.1376 38.5034 41.2089 38.4965 41.2813L38.4776 41.4784C38.4648 41.6171 38.4519 41.7558 38.437 41.8935C38.4301 41.9599 38.4231 42.0253 38.4152 42.0907L38.4113 42.1244C38.3974 42.2502 38.3825 42.377 38.3677 42.5019C38.3578 42.5821 38.3479 42.6624 38.337 42.7416C38.3211 42.8645 38.3043 42.9873 38.2874 43.1092C38.2765 43.1874 38.2656 43.2667 38.2537 43.345C38.2349 43.4718 38.2151 43.5976 38.1943 43.7234L38.1844 43.7849C38.1765 43.8364 38.1675 43.8879 38.1596 43.9384C38.1348 44.087 38.1081 44.2347 38.0804 44.3813L38.0695 44.4437C38.0645 44.4705 38.0595 44.4972 38.0546 44.524C38.0169 44.7191 37.9773 44.9133 37.9377 45.1006C37.9317 45.1273 37.9258 45.1541 37.9199 45.1798L37.906 45.2413C37.8743 45.3849 37.8416 45.5276 37.8079 45.6693C37.797 45.7158 37.7851 45.7634 37.7732 45.8099L37.7574 45.8733C37.7276 45.9942 37.6969 46.1141 37.6642 46.233C37.6464 46.2994 37.6286 46.3648 37.6097 46.4311L37.6038 46.4519C37.5721 46.5659 37.5394 46.6798 37.5057 46.7918C37.4839 46.8651 37.4621 46.9384 37.4393 47.0107C37.4037 47.1246 37.367 47.2376 37.3304 47.3495L37.3145 47.3971C37.2967 47.4506 37.2788 47.5041 37.261 47.5566C37.2194 47.6785 37.1748 47.7993 37.1312 47.9202L37.1074 47.9856C37.0946 48.0213 37.0817 48.0569 37.0688 48.0916C36.9955 48.2848 36.9271 48.4562 36.8607 48.6167C36.8607 48.6177 36.8568 48.6266 36.8558 48.6276C36.7825 48.803 36.7072 48.9734 36.6309 49.1408L36.6012 49.2042C36.5209 49.3766 36.4446 49.5351 36.3674 49.6887L36.3466 49.7293C36.2683 49.8809 36.197 50.0166 36.1246 50.1474Z" fill="#F9FAFB"/>
<path d="M83.4538 47.5762H78.5853H75.6953L77.231 49.6706H80.121H84.9895L83.4538 47.5762Z" fill="#D0D5DD"/>
<path d="M84.9884 49.8184H77.2309C77.1834 49.8184 77.1388 49.7956 77.111 49.758L75.5754 47.6645C75.5427 47.6189 75.5377 47.5595 75.5625 47.509C75.5873 47.4594 75.6388 47.4277 75.6953 47.4277H83.4537C83.5013 47.4277 83.5459 47.4505 83.5736 47.4882L85.1093 49.5816C85.142 49.6272 85.1469 49.6866 85.1222 49.7372C85.0964 49.7867 85.0449 49.8184 84.9884 49.8184ZM77.3062 49.5212H84.6951L83.3775 47.725H75.9875L77.3062 49.5212Z" fill="#F9FAFB"/>
<path d="M76.0655 67.5938H75.3928H61.7324L63.2681 69.6872H76.9284H77.6001L76.0655 67.5938Z" fill="#D0D5DD"/>
<path d="M77.6001 69.836H63.267C63.2195 69.836 63.1749 69.8132 63.1472 69.7755L61.6115 67.6821C61.5788 67.6365 61.5739 67.5771 61.5986 67.5266C61.6234 67.477 61.6749 67.4453 61.7314 67.4453H76.0644C76.112 67.4453 76.1566 67.4681 76.1843 67.5057L77.72 69.5992C77.7527 69.6448 77.7576 69.7042 77.7329 69.7547C77.7081 69.8053 77.6566 69.836 77.6001 69.836ZM63.3423 69.5387H77.3068L75.9901 67.7425H62.0256L63.3423 69.5387Z" fill="#F9FAFB"/>
<path d="M76.9279 59C77.1617 59 77.3222 59.1833 77.2865 59.4092C77.2509 59.6351 77.0309 59.8184 76.7971 59.8184H65.6146C65.3798 59.8184 65.2203 59.6351 65.256 59.4092C65.2916 59.1833 65.5106 59 65.7454 59H76.9279Z" fill="#98A2B3"/>
<path d="M76.7981 59.9661H65.6147C65.4581 59.9661 65.3135 59.9027 65.2184 59.7908C65.1242 59.6808 65.0856 59.5362 65.1094 59.3856C65.1569 59.0864 65.4363 58.8516 65.7454 58.8516H76.9289C77.0855 58.8516 77.2301 58.916 77.3252 59.0269C77.4193 59.1379 77.458 59.2815 77.4342 59.4321C77.3857 59.7313 77.1072 59.9661 76.7981 59.9661ZM65.7454 59.1488C65.5839 59.1488 65.4274 59.2786 65.4026 59.4321C65.3927 59.4955 65.4076 59.555 65.4443 59.5976C65.4829 59.6432 65.5443 59.6689 65.6147 59.6689H76.7981C76.9596 59.6689 77.1162 59.5391 77.1409 59.3856C77.1508 59.3222 77.136 59.2627 77.0993 59.2201C77.0607 59.1745 76.9993 59.1488 76.9289 59.1488H65.7454Z" fill="#98A2B3"/>
<path d="M76.551 61.3691C76.7848 61.3691 76.9463 61.5514 76.9097 61.7783C76.874 62.0042 76.654 62.1865 76.4202 62.1865H65.5894C65.3546 62.1865 65.1941 62.0042 65.2308 61.7783C65.2665 61.5524 65.4854 61.3691 65.7202 61.3691H76.551Z" fill="#98A2B3"/>
<path d="M76.4211 62.3333H65.5893C65.4318 62.3333 65.2871 62.2689 65.192 62.158C65.0979 62.048 65.0592 61.9043 65.083 61.7528C65.1306 61.4536 65.41 61.2188 65.7191 61.2188H76.5508C76.7074 61.2188 76.852 61.2831 76.9471 61.3941C77.0413 61.5041 77.0799 61.6487 77.0561 61.7993C77.0086 62.0995 76.7302 62.3333 76.4211 62.3333ZM65.7201 61.517C65.5586 61.517 65.402 61.6467 65.3773 61.8003C65.3674 61.8637 65.3812 61.9222 65.4189 61.9658C65.4575 62.0113 65.5189 62.0371 65.5903 62.0371H76.422C76.5835 62.0371 76.7401 61.9073 76.7648 61.7537C76.7748 61.6903 76.7609 61.6309 76.7232 61.5883C76.6846 61.5427 76.6232 61.517 76.5528 61.517H65.7201Z" fill="#98A2B3"/>
<path d="M75.4053 63.7344C75.6401 63.7344 75.8006 63.9167 75.7639 64.1426C75.7283 64.3684 75.5093 64.5517 75.2745 64.5517H65.0035C64.7687 64.5517 64.6082 64.3694 64.6449 64.1426C64.6805 63.9167 64.8995 63.7344 65.1343 63.7344H75.4053Z" fill="#98A2B3"/>
<path d="M75.2744 64.6986H65.0033C64.8458 64.6986 64.7012 64.6352 64.6061 64.5232C64.5119 64.4132 64.4733 64.2686 64.4971 64.117C64.5446 63.8178 64.824 63.584 65.1331 63.584H75.4051C75.5627 63.584 75.7073 63.6474 75.8024 63.7593C75.8965 63.8693 75.9352 64.013 75.9114 64.1646C75.8629 64.4648 75.5835 64.6986 75.2744 64.6986ZM65.1331 63.8822C64.9716 63.8822 64.8151 64.012 64.7903 64.1655C64.7804 64.2299 64.7943 64.2884 64.8319 64.332C64.8706 64.3776 64.932 64.4033 65.0024 64.4033H75.2744C75.4358 64.4033 75.5924 64.2735 75.6171 64.12C75.6271 64.0566 75.6132 63.9981 75.5755 63.9545C75.5369 63.909 75.4755 63.8832 75.4041 63.8832H65.1331V63.8822Z" fill="#98A2B3"/>
<path d="M82.5636 45.1113C82.7687 45.1113 82.9104 45.2718 82.8787 45.47C82.847 45.6691 82.6548 45.8296 82.4497 45.8296H77.2414C77.0363 45.8296 76.8946 45.6691 76.9263 45.47C76.958 45.2718 77.1502 45.1113 77.3553 45.1113H82.5636Z" fill="#D0D5DD"/>
<path d="M82.4487 45.9774H77.2404C77.0977 45.9774 76.966 45.919 76.8788 45.8169C76.7926 45.7159 76.7569 45.5841 76.7787 45.4454C76.8223 45.1739 77.0749 44.9609 77.3543 44.9609H82.5627C82.7053 44.9609 82.8381 45.0194 82.9243 45.1214C83.0105 45.2225 83.0461 45.3543 83.0243 45.492C82.9817 45.7644 82.7281 45.9774 82.4487 45.9774ZM77.3553 45.2592C77.2226 45.2592 77.0928 45.3661 77.073 45.493C77.065 45.5445 77.0759 45.5901 77.1057 45.6247C77.1364 45.6604 77.1849 45.6802 77.2414 45.6802H82.4497C82.5825 45.6802 82.7123 45.5732 82.7321 45.4454C82.74 45.3939 82.7291 45.3493 82.6994 45.3146C82.6687 45.279 82.6201 45.2582 82.5636 45.2582H77.3553V45.2592Z" fill="#D0D5DD"/>
<path d="M36.0417 42.3789C36.2468 42.3789 36.3885 42.5394 36.3568 42.7376C36.3251 42.9367 36.1329 43.0972 35.9278 43.0972H26.5851C26.38 43.0972 26.2384 42.9367 26.2701 42.7376C26.3018 42.5394 26.494 42.3789 26.6991 42.3789H36.0417Z" fill="#D0D5DD"/>
<path d="M35.9268 43.245H26.5841C26.4415 43.245 26.3097 43.1866 26.2225 43.0845C26.1363 42.9835 26.1007 42.8517 26.1225 42.713C26.1661 42.4415 26.4187 42.2285 26.6981 42.2285H36.0408C36.1834 42.2285 36.3162 42.287 36.4024 42.389C36.4886 42.4901 36.5242 42.6218 36.5015 42.7596C36.4598 43.032 36.2062 43.245 35.9268 43.245ZM26.6991 42.5267C26.5663 42.5267 26.4365 42.6337 26.4167 42.7605C26.4088 42.8121 26.4197 42.8576 26.4494 42.8923C26.4801 42.928 26.5287 42.9478 26.5851 42.9478H35.9278C36.0606 42.9478 36.1904 42.8408 36.2102 42.713C36.2181 42.6615 36.2072 42.6169 36.1775 42.5822C36.1468 42.5465 36.0982 42.5257 36.0418 42.5257H26.6991V42.5267Z" fill="#D0D5DD"/>
<path d="M35.7107 44.457C35.9158 44.457 36.0574 44.6175 36.0257 44.8157C35.994 45.0138 35.8018 45.1743 35.5967 45.1743H26.2541C26.049 45.1743 25.9073 45.0138 25.939 44.8157C25.9707 44.6175 26.1629 44.457 26.368 44.457H35.7107Z" fill="#D0D5DD"/>
<path d="M35.5958 45.3241H26.2531C26.1104 45.3241 25.9777 45.2656 25.8915 45.1636C25.8053 45.0625 25.7696 44.9308 25.7914 44.7931C25.835 44.5216 26.0876 44.3086 26.367 44.3086H35.7097C35.8524 44.3086 35.9851 44.367 36.0713 44.4691C36.1575 44.5701 36.1932 44.7019 36.1704 44.8396C36.1288 45.1111 35.8762 45.3241 35.5958 45.3241ZM26.368 44.6058C26.2353 44.6058 26.1055 44.7128 26.0857 44.8396C26.0777 44.8911 26.0886 44.9357 26.1183 44.9704C26.1491 45.0061 26.1976 45.0269 26.2541 45.0269H35.5968C35.7295 45.0269 35.8593 44.9199 35.8791 44.7931C35.8871 44.7415 35.8762 44.697 35.8464 44.6623C35.8157 44.6266 35.7672 44.6058 35.7107 44.6058H26.368Z" fill="#D0D5DD"/>
<path d="M82.8332 43.4219C83.0382 43.4219 83.1799 43.5824 83.1482 43.7815C83.1165 43.9797 82.9243 44.1402 82.7192 44.1402H77.5109C77.3058 44.1402 77.1641 43.9797 77.1958 43.7815C77.2275 43.5824 77.4198 43.4219 77.6248 43.4219H82.8332Z" fill="#D0D5DD"/>
<path d="M82.7182 44.2889H77.5099C77.3673 44.2889 77.2345 44.2305 77.1483 44.1284C77.0621 44.0274 77.0264 43.8956 77.0482 43.7579C77.0918 43.4864 77.3445 43.2734 77.6249 43.2734H82.8332C82.9758 43.2734 83.1076 43.3319 83.1948 43.4339C83.281 43.535 83.3166 43.6668 83.2949 43.8055C83.2513 44.0759 82.9976 44.2889 82.7182 44.2889ZM77.6249 43.5707C77.4921 43.5707 77.3623 43.6777 77.3425 43.8055C77.3346 43.857 77.3455 43.9016 77.3752 43.9362C77.4059 43.9719 77.4544 43.9927 77.5109 43.9927H82.7192C82.852 43.9927 82.9818 43.8857 83.0016 43.7589C83.0095 43.7074 82.9986 43.6618 82.9689 43.6271C82.9382 43.5915 82.8896 43.5717 82.8332 43.5717H77.6249V43.5707Z" fill="#D0D5DD"/>
<path d="M84.8329 29.6152L85.0281 30.8368C85.146 31.569 85.6483 32.1426 86.3715 32.3685L87.5792 32.745L86.2516 33.1215C85.4571 33.3474 84.7715 33.921 84.4198 34.6531L83.8342 35.8747L83.6381 34.6531C83.5202 33.921 83.0179 33.3474 82.2946 33.1215L81.0879 32.745L82.4145 32.3685C83.2091 32.1426 83.8947 31.569 84.2464 30.8368L84.8329 29.6152Z" fill="#D0D5DD"/>
<path d="M29.2032 30.8535L29.3528 31.7898C29.443 32.3515 29.8284 32.7914 30.3832 32.9638L31.3085 33.2521L30.291 33.5414C29.6817 33.7138 29.1556 34.1537 28.8862 34.7144L28.4374 35.6517L28.2878 34.7144C28.1976 34.1527 27.8122 33.7138 27.2574 33.5414L26.332 33.2521L27.3495 32.9638C27.9588 32.7914 28.4849 32.3505 28.7544 31.7898L29.2032 30.8535Z" fill="#D0D5DD"/>
<path d="M81.3012 67.1562L81.3845 67.6784C81.435 67.9905 81.65 68.2362 81.9591 68.3323L82.4743 68.4928L81.9076 68.6533C81.5677 68.7504 81.2745 68.9951 81.1239 69.3072L80.8732 69.8293L80.79 69.3072C80.7395 68.9951 80.5255 68.7494 80.2164 68.6533L79.7002 68.4928L80.2679 68.3323C80.6077 68.2352 80.9 67.9905 81.0506 67.6784L81.3012 67.1562Z" fill="#D0D5DD"/>
<path d="M24.1264 65.1367L24.2096 65.6588C24.2601 65.9719 24.4751 66.2166 24.7843 66.3127L25.2994 66.4732L24.7327 66.6337C24.3929 66.7308 24.0996 66.9755 23.9491 67.2886L23.6994 67.8107L23.6162 67.2886C23.5666 66.9755 23.3516 66.7308 23.0425 66.6337L22.5273 66.4732L23.094 66.3127C23.4339 66.2166 23.7271 65.9719 23.8767 65.6588L24.1264 65.1367Z" fill="#D0D5DD"/>
</svg>
