<?xml version="1.0" standalone="no"?>
<!DOCTYPE svg PUBLIC "-//W3C//DTD SVG 20010904//EN"
 "http://www.w3.org/TR/2001/REC-SVG-20010904/DTD/svg10.dtd">
<svg version="1.0" xmlns="http://www.w3.org/2000/svg"
 width="441.000000pt" height="130.000000pt" viewBox="0 0 441.000000 130.000000"
 preserveAspectRatio="xMidYMid meet">
<metadata>
Created by potrace 1.16, written by Peter Selinger 2001-2019
</metadata>
<g transform="translate(0.000000,130.000000) scale(0.100000,-0.100000)"
fill="#000000" stroke="none">
<path d="M509 1227 c-14 -8 -39 -26 -55 -39 -26 -23 -240 -199 -336 -278 -65
-53 -69 -131 -11 -193 16 -16 80 -68 143 -115 63 -48 122 -92 130 -99 68 -56
167 -123 180 -123 30 0 70 49 70 87 0 50 -11 64 -96 129 -42 33 -91 70 -109
84 -18 14 -56 42 -83 63 -52 39 -65 58 -56 81 3 8 41 43 86 78 44 34 98 78
120 96 51 41 73 41 126 -3 215 -175 245 -184 336 -103 25 23 37 41 33 50 -4
13 -217 177 -345 267 -41 29 -99 37 -133 18z"/>
<path d="M1327 871 c-15 -10 -34 -26 -42 -37 -17 -22 -20 -106 -5 -135 12 -22
66 -50 132 -70 95 -27 114 -75 42 -105 -31 -13 -38 -13 -74 6 -21 11 -43 27
-48 36 -11 20 -53 10 -69 -16 -10 -15 -7 -23 17 -49 56 -58 148 -77 221 -47
89 37 109 135 41 208 -14 15 -28 26 -31 25 -13 -3 -127 37 -143 51 -21 18 -23
43 -6 60 21 21 99 15 124 -9 l23 -21 30 21 c35 25 33 38 -14 70 -47 32 -158
39 -198 12z"/>
<path d="M2889 858 c-3 -92 1 -401 5 -406 7 -7 232 -5 244 2 5 3 7 19 4 35
l-4 30 -82 3 -81 3 -2 90 c0 50 -1 129 -2 178 l-1 87 -40 0 c-35 0 -40 -3 -41
-22z"/>
<path d="M550 848 c-42 -44 -42 -53 -4 -102 19 -25 38 -46 42 -46 6 0 64 -44
162 -123 8 -7 34 -27 57 -45 76 -60 71 -75 -57 -170 -41 -31 -95 -73 -119 -94
-25 -21 -54 -38 -68 -38 -15 0 -64 31 -129 80 -57 44 -107 80 -110 80 -3 0
-19 9 -35 21 -16 11 -36 19 -44 17 -27 -6 -125 -83 -124 -98 0 -12 238 -199
300 -236 11 -6 27 -17 36 -25 51 -40 112 -51 156 -27 12 6 67 48 122 92 55 44
108 88 119 96 10 8 38 31 61 50 23 19 59 48 79 63 51 40 71 90 55 142 -7 22
-17 46 -23 54 -9 11 -211 164 -315 239 -14 9 -47 34 -75 55 -28 20 -54 37 -58
37 -4 0 -17 -10 -28 -22z"/>
<path d="M2703 856 c-4 -6 -7 -26 -8 -45 0 -40 -25 -62 -52 -45 -11 6 -30 8
-45 3 -16 -4 -28 -5 -28 -2 0 3 -9 -5 -20 -18 l-20 -24 -6 21 c-4 17 -13 21
-37 20 l-32 -2 -3 -157 c-2 -122 0 -157 10 -158 7 0 21 -2 30 -4 28 -5 36 16
39 108 4 86 5 90 37 118 18 16 41 29 51 29 11 0 22 8 24 18 4 16 5 16 6 0 1
-12 9 -18 27 -18 l25 0 -2 -92 c-4 -128 19 -167 96 -168 53 0 67 11 63 46 -2
24 -7 29 -27 26 -40 -4 -51 14 -51 88 0 88 5 100 42 100 27 0 29 2 26 32 -3
28 -8 34 -33 38 -27 5 -31 10 -35 49 -5 41 -7 44 -38 46 -18 2 -35 -2 -39 -9z"/>
<path d="M3859 770 c-74 -22 -101 -70 -75 -132 13 -31 23 -37 85 -57 70 -22
89 -39 68 -60 -16 -16 -51 -14 -92 6 -34 16 -36 16 -56 -3 -27 -27 -17 -45 34
-66 123 -51 246 29 190 124 -20 34 -72 67 -109 68 -11 0 -29 6 -40 14 -42 32
27 46 102 21 16 -5 23 0 32 20 16 34 18 31 -30 49 -63 22 -80 25 -109 16z"/>
<path d="M1643 762 l-33 -3 0 -148 c0 -155 4 -171 46 -171 36 0 43 20 39 118
-3 106 12 140 62 140 44 0 52 -22 53 -140 0 -115 3 -120 57 -110 20 4 21 11
25 109 3 96 5 106 27 124 28 23 64 25 81 5 8 -10 11 -50 9 -121 -3 -118 2
-131 50 -120 l31 7 0 130 0 130 -29 29 c-24 23 -38 29 -73 29 -39 0 -83 -19
-99 -43 -4 -5 -18 3 -32 17 -20 20 -36 26 -70 26 -24 0 -52 -6 -63 -14 -15
-11 -22 -12 -34 -3 -8 7 -30 11 -47 9z"/>
<path d="M2183 755 c-36 -15 -43 -44 -17 -66 12 -10 20 -10 35 -1 25 16 94 15
106 0 6 -7 10 -21 10 -30 0 -14 -8 -16 -47 -11 -67 8 -115 -10 -134 -51 -46
-98 55 -192 154 -141 22 11 29 12 33 2 4 -11 23 -13 70 -8 4 1 7 53 7 117 0
170 -22 204 -133 204 -29 -1 -67 -7 -84 -15z"/>
<path d="M3267 763 c-43 -7 -103 -72 -110 -120 -19 -117 42 -203 145 -203 54
0 84 10 115 37 l22 20 -20 21 c-23 26 -29 27 -55 7 -39 -30 -97 -17 -120 26
l-15 29 116 0 116 0 -6 33 c-3 17 -7 39 -9 47 -10 64 -99 115 -179 103z"/>
<path d="M3523 753 c-37 -19 -43 -47 -13 -63 14 -7 26 -8 39 0 31 16 98 13
105 -6 13 -35 7 -39 -63 -39 -60 0 -73 -3 -95 -24 -48 -45 -31 -138 31 -170
28 -14 78 -14 102 1 11 7 26 8 37 3 29 -13 58 -14 72 -3 8 7 12 44 12 117 0
161 -28 201 -140 200 -30 0 -70 -8 -87 -16z"/>
<path d="M4121 752 c-48 -24 -73 -62 -79 -120 -14 -149 104 -234 235 -171 34
16 43 26 41 42 -5 34 -34 45 -69 25 -52 -30 -91 -20 -118 30 l-12 22 110 0
109 0 4 30 c6 43 -41 122 -85 144 -45 21 -93 20 -136 -2z"/>
</g>
</svg>
